<?xml version="1.0" encoding="UTF-8" standalone="no" ?>
<!DOCTYPE svg PUBLIC "-//W3C//DTD SVG 1.1//EN" "http://www.w3.org/Graphics/SVG/1.1/DTD/svg11.dtd">
<svg xmlns="http://www.w3.org/2000/svg" xmlns:xlink="http://www.w3.org/1999/xlink" version="1.1" width="1080" height="1080" viewBox="0 0 1080 1080" xml:space="preserve">
<desc>Created with Fabric.js 5.2.4</desc>
<defs>
</defs>
<g transform="matrix(1 0 0 1 540 540)" id="e6753635-8314-4aa5-9129-025544d8b643"  >
</g>
<g transform="matrix(1 0 0 1 540 540)" id="25136c9c-0e6f-407d-b3dc-25088b1ab87e"  >
<rect style="stroke: none; stroke-width: 1; stroke-dasharray: none; stroke-linecap: butt; stroke-dashoffset: 0; stroke-linejoin: miter; stroke-miterlimit: 4; fill: rgb(255,255,255); fill-rule: nonzero; opacity: 1; visibility: hidden;" vector-effect="non-scaling-stroke"  x="-540" y="-540" rx="0" ry="0" width="1080" height="1080" />
</g>
<g transform="matrix(2.16 0 0 2.16 540 738.52)" id="freepik--floor--inject-3"  >
<ellipse style="stroke: none; stroke-width: 1; stroke-dasharray: none; stroke-linecap: butt; stroke-dashoffset: 0; stroke-linejoin: miter; stroke-miterlimit: 4; fill: rgb(240,240,240); fill-rule: nonzero; opacity: 1;" vector-effect="non-scaling-stroke"  cx="0" cy="0" rx="235.59" ry="136.02" />
</g>
<g transform="matrix(2.16 0 0 2.16 434.7 859.85)" id="freepik--shadow--inject-3"  >
<ellipse style="stroke: none; stroke-width: 1; stroke-dasharray: none; stroke-linecap: butt; stroke-dashoffset: 0; stroke-linejoin: miter; stroke-miterlimit: 4; fill: rgb(224,224,224); fill-rule: nonzero; opacity: 1;" vector-effect="non-scaling-stroke"  cx="0" cy="0" rx="81.24" ry="46.9" />
</g>
<g transform="matrix(2.16 0 0 2.16 953.57 641.01)"  >
<path style="stroke: none; stroke-width: 1; stroke-dasharray: none; stroke-linecap: butt; stroke-dashoffset: 0; stroke-linejoin: miter; stroke-miterlimit: 4; fill: rgb(64,169,255); fill-rule: nonzero; opacity: 1;" vector-effect="non-scaling-stroke"  transform=" translate(-441.47, -296.76)" d="M 432.28 339.4 L 422.75 333.9 C 422.75 333.9 420.42 313.5 421.97 297.7 C 424.15000000000003 275.5 438.49 248.77999999999997 455.59000000000003 255.06 C 472.69000000000005 261.34000000000003 447.75000000000006 283.94 442.20000000000005 302.77 C 436.65000000000003 321.59999999999997 432.28 339.4 432.28 339.4 Z" stroke-linecap="round" />
</g>
<g transform="matrix(2.16 0 0 2.16 955.81 638.77)"  >
<path style="stroke: none; stroke-width: 1; stroke-dasharray: none; stroke-linecap: butt; stroke-dashoffset: 0; stroke-linejoin: miter; stroke-miterlimit: 4; fill: rgb(64,169,255); fill-rule: nonzero; opacity: 0.15;" vector-effect="non-scaling-stroke"  transform=" translate(-441.47, -296.76)" d="M 432.28 339.4 L 422.75 333.9 C 422.75 333.9 420.42 313.5 421.97 297.7 C 424.15000000000003 275.5 438.49 248.77999999999997 455.59000000000003 255.06 C 472.69000000000005 261.34000000000003 447.75000000000006 283.94 442.20000000000005 302.77 C 436.65000000000003 321.59999999999997 432.28 339.4 432.28 339.4 Z" stroke-linecap="round" />
</g>
<g transform="matrix(2.16 0 0 2.16 947.91 650.54)"  >
<path style="stroke: none; stroke-width: 1; stroke-dasharray: none; stroke-linecap: butt; stroke-dashoffset: 0; stroke-linejoin: miter; stroke-miterlimit: 4; fill: rgb(255,255,255); fill-rule: nonzero; opacity: 1;" vector-effect="non-scaling-stroke"  transform=" translate(-438.85, -299.1)" d="M 427.27 337.09 L 427.27 337.09 C 427.5864492039103 337.0738135246385 427.8313400082812 336.8066599198703 427.82 336.48999999999995 C 426.15 287.15999999999997 450.71 262.3399999999999 450.95 262.09999999999997 C 451.1763415600862 261.87352383296746 451.1763415600862 261.5064761670325 450.95 261.28 C 450.8429497844989 261.17190682109646 450.697131140679 261.1110922587136 450.54499999999996 261.1110922587136 C 450.39286885932097 261.1110922587136 450.2470502155011 261.17190682109646 450.14 261.28 C 449.88 261.52 424.96999999999997 286.7 426.65999999999997 336.53 C 426.6651578686061 336.6856679606266 426.7327083897592 336.8327199428186 426.8474445363302 336.9380514872117 C 426.96218068290125 337.0433830316048 427.1144595508042 337.09814163608706 427.27 337.09 Z" stroke-linecap="round" />
</g>
<g transform="matrix(2.16 0 0 2.16 975.19 675.97)"  >
<path style="stroke: none; stroke-width: 1; stroke-dasharray: none; stroke-linecap: butt; stroke-dashoffset: 0; stroke-linejoin: miter; stroke-miterlimit: 4; fill: rgb(64,169,255); fill-rule: nonzero; opacity: 1;" vector-effect="non-scaling-stroke"  transform=" translate(-451.48, -312.95)" d="M 438.27 342.83 L 431.49 338.91999999999996 C 431.49 338.91999999999996 430.33 324.91999999999996 437.2 307.91999999999996 C 443.2 293.11999999999995 458 280.83 465.46 283.40999999999997 C 472.91999999999996 285.98999999999995 472.72999999999996 291.28 469.09 296.83 C 465.45 302.38 443.34 315.59 438.27 342.83 Z" stroke-linecap="round" />
</g>
<g transform="matrix(2.16 0 0 2.16 971 678.87)"  >
<path style="stroke: none; stroke-width: 1; stroke-dasharray: none; stroke-linecap: butt; stroke-dashoffset: 0; stroke-linejoin: miter; stroke-miterlimit: 4; fill: rgb(255,255,255); fill-rule: nonzero; opacity: 1;" vector-effect="non-scaling-stroke"  transform=" translate(-449.54, -314.29)" d="M 434.69 341.35 L 434.69 341.35 C 435.00808399835284 341.344652923809 435.26465292380897 341.0880839983529 435.27 340.77000000000004 C 435.13 309.57000000000005 464.41999999999996 288.49 464.71999999999997 288.28000000000003 C 464.8463241205389 288.1934618540575 464.9317025897973 288.05897063707533 464.9562629071793 287.90783022241664 C 464.98082322456133 287.756689807758 464.9424229337064 287.6020845422574 464.84999999999997 287.48 C 464.6659525391739 287.22326474388524 464.3102967587419 287.16102498230964 464.04999999999995 287.34000000000003 C 463.74999999999994 287.55 433.97999999999996 308.99 434.10999999999996 340.77000000000004 C 434.10999999999996 340.923825564107 434.1711069674119 341.0713508335884 434.2798780669118 341.18012193308823 C 434.38864916641165 341.2888930325881 434.53617443589303 341.35 434.69 341.35 Z" stroke-linecap="round" />
</g>
<g transform="matrix(2.16 0 0 2.16 153.33 615.19)"  >
<path style="stroke: none; stroke-width: 1; stroke-dasharray: none; stroke-linecap: butt; stroke-dashoffset: 0; stroke-linejoin: miter; stroke-miterlimit: 4; fill: rgb(64,169,255); fill-rule: nonzero; opacity: 1;" vector-effect="non-scaling-stroke"  transform=" translate(-70.99, -284.81)" d="M 79.66 327.15 L 88.46 321.21 C 88.46 321.21 92.33 298.21 88.72999999999999 277.91999999999996 C 83.67 249.46 64 240 57 243 C 50 246 48.5 254.47 61.57 270.71 C 69.32 280.26 79.39 300.65 79.66 327.15 Z" stroke-linecap="round" />
</g>
<g transform="matrix(2.16 0 0 2.16 155 616.87)"  >
<path style="stroke: none; stroke-width: 1; stroke-dasharray: none; stroke-linecap: butt; stroke-dashoffset: 0; stroke-linejoin: miter; stroke-miterlimit: 4; fill: rgb(64,169,255); fill-rule: nonzero; opacity: 0.15;" vector-effect="non-scaling-stroke"  transform=" translate(-70.99, -284.81)" d="M 79.66 327.15 L 88.46 321.21 C 88.46 321.21 92.33 298.21 88.72999999999999 277.91999999999996 C 83.67 249.46 64 240 57 243 C 50 246 48.5 254.47 61.57 270.71 C 69.32 280.26 79.39 300.65 79.66 327.15 Z" stroke-linecap="round" />
</g>
<g transform="matrix(2.16 0 0 2.16 155.17 615.56)"  >
<path style="stroke: none; stroke-width: 1; stroke-dasharray: none; stroke-linecap: butt; stroke-dashoffset: 0; stroke-linejoin: miter; stroke-miterlimit: 4; fill: rgb(255,255,255); fill-rule: nonzero; opacity: 1;" vector-effect="non-scaling-stroke"  transform=" translate(-72.61, -281.11)" d="M 82.68 315.75 L 82.59 315.75 C 82.40818902811107 315.73854208132155 82.23987656347595 315.6501477273351 82.12724269449754 315.5069690803286 C 82.01460882551912 315.36379043332215 81.96832855881553 315.17939741696284 82 315 C 85.18 288.21 73.87 259.13 61.56 247.56 C 61.31344321349241 247.31065854081078 61.31344321349241 246.90934145918922 61.56 246.66 C 61.67849604053151 246.53906048506568 61.840684679091964 246.47090815370098 62.010000000000005 246.47090815370098 C 62.17931532090804 246.47090815370098 62.34150395946849 246.53906048506568 62.46 246.66 C 75 258.44 86.52 288 83.3 315.18 C 83.26101414376541 315.49630062318545 82.99845613832429 315.7376845959297 82.68 315.75 Z" stroke-linecap="round" />
</g>
<g transform="matrix(2.16 0 0 2.16 131.06 658.25)"  >
<path style="stroke: none; stroke-width: 1; stroke-dasharray: none; stroke-linecap: butt; stroke-dashoffset: 0; stroke-linejoin: miter; stroke-miterlimit: 4; fill: rgb(64,169,255); fill-rule: nonzero; opacity: 1;" vector-effect="non-scaling-stroke"  transform=" translate(-61.45, -304.74)" d="M 56.62 342.69 C 55.22 343.53 51.14 340.5 50.01 339.77 C 48.07337872688345 338.50551518262745 46.49584868047068 336.76265447632863 45.43000000000001 334.71 C 44.234281745366445 332.38222605457946 43.79053470164833 329.7407082195331 44.16 327.15 C 44.36481201306165 325.7978767099273 44.66217732077126 324.4614034168505 45.05 323.15 C 45.4 321.84 45.75 320.53 46.05 319.21 C 46.493489138000726 317.92605471681526 46.66379524866293 316.56360583151763 46.55 315.21 C 46.16 312.53999999999996 43.75 310.71 41.55 309.14 C 39.129999999999995 307.39 36.55 305.08 36.55 301.86 C 36.673360727947355 299.33006561685477 37.64165963468523 296.91459998041046 39.3 295 C 40.8 293 42.599999999999994 291.26 43.949999999999996 289.17 C 45.00565090380337 287.72175589154 45.5444442770696 285.9609932338072 45.48 284.17 C 45.3061481851589 283.0659423209773 44.91163163177525 282.00822983733667 44.32 281.06 C 43.14 278.98 41.61 277.06 40.78 274.85 C 39.95 272.64000000000004 40.01 269.8 41.78 268.15000000000003 C 43.19 266.8 45.34 266.58000000000004 47.29 266.67 C 49.127498003304915 266.8530090999796 50.90251524551253 267.43671669309015 52.49 268.38 C 57.660000000000004 271.13 60.7 277.13 66.17 279.21999999999997 C 68.28 280.02 70.58 280.15999999999997 72.77 280.7 C 74.96 281.24 77.22 282.31 78.27 284.3 C 80.33999999999999 288.25 76.72999999999999 293.23 78.21 297.42 C 79.52999999999999 301.14000000000004 83.21 302.5 85.28999999999999 305.83000000000004 C 86.13418767783168 307.30878934328064 86.48451009763299 309.01836275191107 86.28999999999999 310.71000000000004 C 86.17267262198989 313.5657161224842 85.53205366568747 316.37562678266784 84.4 319 C 83.09799782286 321.7217300130618 81.62851261810175 324.3601239034232 80 326.9 C 80 326.9 56.83 342.56 56.62 342.69 Z" stroke-linecap="round" />
</g>
<g transform="matrix(2.16 0 0 2.16 128.93 654.55)"  >
<path style="stroke: none; stroke-width: 1; stroke-dasharray: none; stroke-linecap: butt; stroke-dashoffset: 0; stroke-linejoin: miter; stroke-miterlimit: 4; fill: rgb(255,255,255); fill-rule: nonzero; opacity: 1;" vector-effect="non-scaling-stroke"  transform=" translate(-59.69, -303.03)" d="M 70.14 334.4 L 70.14 334.4 C 69.97025477135463 334.39736845667505 69.80850969205922 334.32740300564495 69.69035735182256 334.2054997974643 C 69.5722050115859 334.0835965892836 69.50732701504732 333.9197445811199 69.51 333.75 C 70.07000000000001 308.43 57.61000000000001 280.75 48.790000000000006 272.75 C 48.5290678872027 272.51460606682576 48.50674802818691 272.1128486045415 48.74000000000001 271.85 C 48.85849604053152 271.7290604850657 49.02068467909197 271.660908153701 49.19000000000001 271.660908153701 C 49.359315320908046 271.660908153701 49.5215039594685 271.7290604850657 49.64000000000001 271.85 C 58.64000000000001 279.95000000000005 71.35000000000001 308.11 70.78 333.78000000000003 C 70.77736878242693 333.94709317490293 70.70845699940921 334.1062949095227 70.58842908145026 334.22257195504545 C 70.46840116349131 334.3388490005682 70.30709250665717 334.40267331705485 70.14 334.4 Z" stroke-linecap="round" />
</g>
<g transform="matrix(2.16 0 0 2.16 121.33 651.48)"  >
<path style="stroke: none; stroke-width: 1; stroke-dasharray: none; stroke-linecap: butt; stroke-dashoffset: 0; stroke-linejoin: miter; stroke-miterlimit: 4; fill: rgb(255,255,255); fill-rule: nonzero; opacity: 1;" vector-effect="non-scaling-stroke"  transform=" translate(-56.17, -301.61)" d="M 65.47 303.55 C 65.41091477788954 303.5648171081353 65.34908522211045 303.5648171081353 65.28999999999999 303.55 C 57.10999999999999 301.19 46.96999999999999 300.95 46.86999999999999 300.94 C 46.701131360601245 300.937404988671 46.54037564850993 300.8671164227297 46.42380690684766 300.7449072580838 C 46.30723816518538 300.62269809343786 46.24461852022565 300.4588028173095 46.24999999999999 300.29 C 46.24683201149572 300.11931322054824 46.3153346627417 299.9551093489696 46.438866293211845 299.8372791783673 C 46.56239792368199 299.719449007765 46.72965318642196 299.6587760998494 46.89999999999999 299.67 C 46.99999999999999 299.67 57.29999999999999 299.92 65.63999999999999 302.32 C 65.97540601988159 302.4212464509259 66.1670624044165 302.77335934344353 66.07 303.11 C 65.99001027742061 303.37371098337604 65.74555940942872 303.55297495323674 65.47 303.55 Z" stroke-linecap="round" />
</g>
<g transform="matrix(2.16 0 0 2.16 764.85 422.78)"  >
<path style="stroke: none; stroke-width: 1; stroke-dasharray: none; stroke-linecap: butt; stroke-dashoffset: 0; stroke-linejoin: miter; stroke-miterlimit: 4; fill: rgb(69,90,100); fill-rule: nonzero; opacity: 1;" vector-effect="non-scaling-stroke"  transform=" translate(-354.1, -195.73)" d="M 301.16 309.74 L 297.37 307.55 C 296.08917019447466 306.71840215562514 295.2827794010164 305.32486967845074 295.2 303.8 L 295.2 146.28 C 295.28369716778303 144.75793073055664 296.0853897486108 143.36610333328622 297.36 142.53 L 402.71 81.71 C 404.07096561563714 81.02040860637183 405.6790343843628 81.02040860637183 407.03999999999996 81.71 L 410.83 83.89999999999999 C 412.1108298055253 84.73159784437486 412.9172205989836 86.12513032154928 413 87.65 L 413 245.17 C 412.91630283221696 246.69206926944335 412.1146102513892 248.08389666671377 410.84 248.92 L 305.49 309.75 C 304.12860045827256 310.44133112763086 302.5181918210191 310.43761193909216 301.16 309.74 Z" stroke-linecap="round" />
</g>
<g transform="matrix(2.16 0 0 2.16 765.53 248.44)"  >
<path style="stroke: none; stroke-width: 1; stroke-dasharray: none; stroke-linecap: butt; stroke-dashoffset: 0; stroke-linejoin: miter; stroke-miterlimit: 4; fill: rgb(69,90,100); fill-rule: nonzero; opacity: 1;" vector-effect="non-scaling-stroke"  transform=" translate(-354.42, -115.02)" d="M 413 87.3 C 412.85 86.17999999999999 411.94 85.77 410.85 86.39999999999999 L 305.49 147.23 C 304.8529450954679 147.62973454586697 304.32677559733423 148.183416174622 303.96000000000004 148.84 L 295.83000000000004 144.15 C 296.19364105013017 143.4884599433505 296.72030166734925 142.93081928982443 297.36 142.53 L 402.71 81.71 C 404.07096561563714 81.02040860637183 405.6790343843628 81.02040860637183 407.03999999999996 81.71 L 410.83 83.89999999999999 C 412.0145796322677 84.66261773420715 412.8071465331195 85.90442762494273 413 87.3 Z" stroke-linecap="round" />
</g>
<g transform="matrix(2.16 0 0 2.16 648.31 490.77)"  >
<path style="stroke: none; stroke-width: 1; stroke-dasharray: none; stroke-linecap: butt; stroke-dashoffset: 0; stroke-linejoin: miter; stroke-miterlimit: 4; fill: rgb(38,50,56); fill-rule: nonzero; opacity: 1;" vector-effect="non-scaling-stroke"  transform=" translate(-300.14, -227.21)" d="M 305.12 309.92 C 303.82485064537263 310.4446219831574 302.3659665953743 310.38261941103246 301.12 309.75 L 297.32 307.55 C 296.0453897486108 306.7138966667138 295.243697167783 305.3220692694434 295.15999999999997 303.8 L 295.15999999999997 146.28 C 295.1857058820978 145.52801946494392 295.4025211787874 144.79497727137428 295.78999999999996 144.15 L 303.91999999999996 148.84 C 303.52488643803395 149.48584753739686 303.30434899804357 150.22326960236464 303.28 150.98 L 303.28 308.5 C 303.32 309.74 304.1 310.31 305.12 309.92 Z" stroke-linecap="round" />
</g>
<g transform="matrix(2.16 0 0 2.16 773.62 427.85)"  >
<path style="stroke: none; stroke-width: 1; stroke-dasharray: none; stroke-linecap: butt; stroke-dashoffset: 0; stroke-linejoin: miter; stroke-miterlimit: 4; fill: rgb(55,71,79); fill-rule: nonzero; opacity: 1;" vector-effect="non-scaling-stroke"  transform=" translate(-358.16, -198.08)" d="M 303.32 151 L 303.32 308.5 C 303.32 309.88 304.32 310.44 305.49 309.75 L 410.84000000000003 248.92000000000002 C 412.11461025138925 248.0838966667138 412.916302832217 246.69206926944338 413.00000000000006 245.17000000000002 L 413.00000000000006 87.65 C 413.00000000000006 86.27000000000001 412.00000000000006 85.71000000000001 410.84000000000003 86.4 L 305.49 147.23 C 304.20364593312854 148.06567671342054 303.39650784799005 149.4679396539607 303.32 151 Z" stroke-linecap="round" />
</g>
<g transform="matrix(2.16 0 0 2.16 618.91 418.61)"  >
<path style="stroke: none; stroke-width: 1; stroke-dasharray: none; stroke-linecap: butt; stroke-dashoffset: 0; stroke-linejoin: miter; stroke-miterlimit: 4; fill: rgb(69,90,100); fill-rule: nonzero; opacity: 1;" vector-effect="non-scaling-stroke"  transform=" translate(-286.53, -193.8)" d="M 278.72 211 C 277.36 210.19 271.05 206.6 270.72 206.41 C 270.19913545487304 206.0992283457455 269.84743906668047 205.56888005523126 269.76384075035304 204.96813866580848 C 269.6802424340256 204.36739727638567 269.87377537091163 203.76117564937184 270.29 203.32 L 295.20000000000005 176.6 L 303.32000000000005 181.26 L 278.42 208 C 278.0243233754309 208.4212811839226 277.830237548314 208.99313357677278 277.8877467234027 209.56822532765975 C 277.94525589849144 210.1433170785467 278.24873653949714 210.66541282458462 278.72 211 Z" stroke-linecap="round" />
</g>
<g transform="matrix(2.16 0 0 2.16 627.7 424.07)"  >
<path style="stroke: none; stroke-width: 1; stroke-dasharray: none; stroke-linecap: butt; stroke-dashoffset: 0; stroke-linejoin: miter; stroke-miterlimit: 4; fill: rgb(55,71,79); fill-rule: nonzero; opacity: 1;" vector-effect="non-scaling-stroke"  transform=" translate(-290.6, -196.33)" d="M 303.32 181.29 L 278.42 208 C 277.8538733911537 208.6043780317861 277.71876576552967 209.4951400189976 278.08021300186266 210.24020916873926 C 278.44166023819565 210.98527831848088 279.22489575268634 211.4305345561725 280.05 211.36 L 303.32 209.44000000000003 Z" stroke-linecap="round" />
</g>
<g transform="matrix(2.16 0 0 2.16 773.63 343.16)"  >
<path style="stroke: none; stroke-width: 1; stroke-dasharray: none; stroke-linecap: butt; stroke-dashoffset: 0; stroke-linejoin: miter; stroke-miterlimit: 4; fill: rgb(64,169,255); fill-rule: nonzero; opacity: 1;" vector-effect="non-scaling-stroke"  transform=" translate(-358.16, -158.87)" d="M 358.16 133.2 C 370.44 126.10999999999999 380.39000000000004 131.85999999999999 380.39000000000004 146.04 C 380.39000000000004 160.22 370.44000000000005 177.45 358.16 184.54 C 345.88 191.63 335.93 185.88 335.93 171.70999999999998 C 335.93 157.53999999999996 345.88 140.29 358.16 133.2 Z" stroke-linecap="round" />
</g>
<g transform="matrix(2.16 0 0 2.16 773.26 329.79)"  >
<path style="stroke: none; stroke-width: 1; stroke-dasharray: none; stroke-linecap: butt; stroke-dashoffset: 0; stroke-linejoin: miter; stroke-miterlimit: 4; fill: rgb(255,255,255); fill-rule: nonzero; opacity: 1;" vector-effect="non-scaling-stroke"  transform=" translate(-358, -152.68)" d="M 358 144.36 C 362 142.06 365.21 143.92000000000002 365.21 148.52 C 364.933627577723 153.591527081779 362.2554413657748 158.22727797291807 358 161 C 354 163.3 350.78 161.44 350.78 156.84 C 351.05863321542506 151.76661583139872 353.7407483685885 147.1304943478143 358 144.36 Z" stroke-linecap="round" />
</g>
<g transform="matrix(2.16 0 0 2.16 773.98 375.85)"  >
<path style="stroke: none; stroke-width: 1; stroke-dasharray: none; stroke-linecap: butt; stroke-dashoffset: 0; stroke-linejoin: miter; stroke-miterlimit: 4; fill: rgb(255,255,255); fill-rule: nonzero; opacity: 1;" vector-effect="non-scaling-stroke"  transform=" translate(-358.33, -174.01)" d="M 372.22 168.88 C 372.22 161.32999999999998 366.91 158.26 360.37 162.04 L 356.28000000000003 164.4 C 349.74 168.18 344.43 177.4 344.43 184.93 L 344.43 187 C 345.66477794519164 187.3946557242325 346.9536914676722 187.59372875519153 348.25 187.59 C 351.75833069528426 187.47073410201884 355.1745626515912 186.436556920493 358.16 184.59 C 363.8445887490922 181.0885338772451 368.65370565111095 176.33414376785245 372.22 170.69 Z" stroke-linecap="round" />
</g>
<g transform="matrix(2.16 0 0 2.16 773.63 547.85)"  >
<path style="stroke: none; stroke-width: 1; stroke-dasharray: none; stroke-linecap: butt; stroke-dashoffset: 0; stroke-linejoin: miter; stroke-miterlimit: 4; fill: rgb(64,169,255); fill-rule: nonzero; opacity: 1;" vector-effect="non-scaling-stroke"  transform=" translate(-358.16, -253.64)" d="M 344.08 254.73 L 372.24 238.47 C 373.44 237.78 374.41 238.34 374.41 239.72 L 374.41 248.79 C 374.3272205989836 250.31486967845072 373.52082980552535 251.70840215562512 372.24 252.54 L 344.08 268.8 C 342.88 269.49 341.90999999999997 268.93 341.90999999999997 267.55 L 341.90999999999997 258.48 C 341.9927794010164 256.9551303215493 342.79917019447464 255.56159784437486 344.08 254.73 Z" stroke-linecap="round" />
</g>
<g transform="matrix(2.16 0 0 2.16 773.57 481.82)"  >
<path style="stroke: none; stroke-width: 1; stroke-dasharray: none; stroke-linecap: butt; stroke-dashoffset: 0; stroke-linejoin: miter; stroke-miterlimit: 4; fill: rgb(250,250,250); fill-rule: nonzero; opacity: 1;" vector-effect="non-scaling-stroke"  transform=" translate(-358.13, -223.06)" d="M 330.29 234.47 L 386 202.29 C 387.43 201.45999999999998 388.6 202.13 388.6 203.79 L 388.6 207.16 C 388.5009287272143 208.98890960732393 387.5349875357831 210.66073090018563 386 211.66 L 330.26 243.84 C 328.83 244.67000000000002 327.67 244 327.67 242.34 L 327.67 239 C 327.76254150230255 237.15609084824567 328.7378735931018 235.46973421797054 330.29 234.47 Z" stroke-linecap="round" />
</g>
<g transform="matrix(2.16 0 0 2.16 727.11 468.28)"  >
<path style="stroke: none; stroke-width: 1; stroke-dasharray: none; stroke-linecap: butt; stroke-dashoffset: 0; stroke-linejoin: miter; stroke-miterlimit: 4; fill: rgb(250,250,250); fill-rule: nonzero; opacity: 1;" vector-effect="non-scaling-stroke"  transform=" translate(-336.62, -216.79)" d="M 336.81 211.18 C 337.57 210.74 338.16 210.67000000000002 338.58 210.98000000000002 C 338.99999999999994 211.29000000000002 339.21 211.98000000000002 339.21 213.04000000000002 C 339.23119814924866 214.00751396458176 339.0148849235082 214.96547253571822 338.58 215.83 C 338.18704437859225 216.61148269385617 337.57104907818166 217.25879978920293 336.81 217.69000000000003 L 335.31 218.56000000000003 L 335.31 221.79000000000002 C 335.3070812737544 221.90123702282312 335.2797714875824 222.01047616751114 335.23 222.11 C 335.19473075782713 222.2004974595421 335.1317214222892 222.277508869644 335.05 222.33 L 334.29 222.77 C 334.2366666666667 222.81 334.16333333333336 222.81 334.11 222.77 C 334.05609390811577 222.70227644172294 334.0309545682529 222.6160844193362 334.04 222.53 L 334.04 213.18 C 334.0391355113198 213.06944346460935 334.06305479560274 212.96009816503 334.11 212.86 C 334.1479379992387 212.7710899183629 334.21036298913566 212.69479270848882 334.29 212.64000000000001 Z M 335.31 216.75 L 336.76 215.91 C 337.110360981933 215.71238830183788 337.4059378207693 215.4305592229475 337.62 215.09 C 337.84742449020496 214.68835160061826 337.95824782965 214.2312053254072 337.94 213.77 C 337.94 213.23000000000002 337.83 212.92000000000002 337.62 212.83 C 337.3193764668326 212.75688711593452 337.0018400993563 212.82704049944672 336.76 213.02 L 335.31 213.86 Z" stroke-linecap="round" />
</g>
<g transform="matrix(2.16 0 0 2.16 740.59 460.98)"  >
<path style="stroke: none; stroke-width: 1; stroke-dasharray: none; stroke-linecap: butt; stroke-dashoffset: 0; stroke-linejoin: miter; stroke-miterlimit: 4; fill: rgb(250,250,250); fill-rule: nonzero; opacity: 1;" vector-effect="non-scaling-stroke"  transform=" translate(-342.86, -213.42)" d="M 343.4 207.37 C 343.5 207.31 343.58 207.31 343.63 207.37 C 343.6940407686691 207.45969293922343 343.7383473426593 207.56193887920094 343.76 207.67000000000002 L 346.07 215.49 C 346.07 215.49 346.07 215.55 346.07 215.58 C 346.0684550270843 215.69142013574222 346.04106979365895 215.80096106944362 345.99 215.9 C 345.9547307578271 215.9904974595421 345.8917214222892 216.067508869644 345.81 216.12 L 345.13 216.51 C 345.01 216.57999999999998 344.92 216.59 344.87 216.51 C 344.8215297639432 216.4597548019471 344.7870541000526 216.3976986069441 344.77 216.32999999999998 L 344.35999999999996 214.95999999999998 L 341.35999999999996 216.67999999999998 L 340.96 218.51999999999998 C 340.9316060339871 218.6196053495093 340.89480723228445 218.7166203721799 340.84999999999997 218.80999999999997 C 340.8003541619323 218.93190120810067 340.707894800331 219.03147282828672 340.59 219.08999999999997 L 339.90999999999997 219.47999999999996 C 339.85795070499745 219.5236825960698 339.7820492950025 219.5236825960698 339.72999999999996 219.47999999999996 C 339.67765900690284 219.41534588127814 339.65255181581625 219.33285082485074 339.65999999999997 219.24999999999997 C 339.65451910337265 219.21353815306855 339.65451910337265 219.17646184693137 339.65999999999997 219.13999999999996 L 341.96 208.65999999999997 C 341.9877001747287 208.5059185531285 342.03126537441057 208.355115938845 342.09 208.20999999999998 C 342.1389318873435 208.10486224008076 342.21929725933956 208.0175085748677 342.32 207.95999999999998 Z M 343.91999999999996 213.43 L 342.91999999999996 209.9 L 341.91999999999996 214.62 Z" stroke-linecap="round" />
</g>
<g transform="matrix(2.16 0 0 2.16 755.26 451.19)"  >
<path style="stroke: none; stroke-width: 1; stroke-dasharray: none; stroke-linecap: butt; stroke-dashoffset: 0; stroke-linejoin: miter; stroke-miterlimit: 4; fill: rgb(250,250,250); fill-rule: nonzero; opacity: 1;" vector-effect="non-scaling-stroke"  transform=" translate(-349.66, -208.89)" d="M 349.57 203.66 C 349.904687638431 203.44882991200294 350.28554783645694 203.32187651266094 350.68 203.29 C 350.9589242874056 203.26492924369657 351.2386942010526 203.32787747426715 351.48 203.47 C 351.6993701615148 203.61244276607104 351.8702576846333 203.81820529390765 351.97 204.06 C 352.07922205156655 204.30613226836988 352.14032141189773 204.57089616313837 352.15000000000003 204.84 C 352.1567989765262 204.9510946038505 352.1325623342387 205.06189068287932 352.08000000000004 205.16 C 352.04473075782715 205.2504974595421 351.98172142228924 205.327508869644 351.90000000000003 205.38 L 351.24 205.76 C 351.13 205.82 351.05 205.82999999999998 351 205.76 C 350.9380819887439 205.71924197910292 350.8866827269889 205.66441609989758 350.85 205.6 C 350.76902228778084 205.41817845368902 350.61731353722496 205.27730604245858 350.43 205.21 C 350.1255028539775 205.16640800127664 349.8161589023018 205.24554250054248 349.57 205.43 C 349.4078443460147 205.53459261990568 349.25404936360286 205.651610541306 349.11 205.78 C 348.96147817683453 205.9166160358374 348.83047782562585 206.0711292705964 348.72 206.24 C 348.61363965903115 206.40276666825443 348.52639713002225 206.57725172627227 348.46000000000004 206.76000000000002 C 348.4010241068265 206.93395582553126 348.3706300985217 207.11631987536012 348.37000000000006 207.3 C 348.35818201571243 207.46831044703973 348.38914281312 207.63687478848092 348.46000000000004 207.79000000000002 C 348.5224380984798 207.89903632798246 348.63473786758084 207.97015951507976 348.76000000000005 207.98000000000002 C 348.94528617060104 208.01210561314943 349.13471382939906 208.01210561314943 349.32000000000005 207.98000000000002 L 350.19000000000005 207.79000000000002 C 350.51418903465884 207.69393187434665 350.8522860186155 207.65336023627185 351.19000000000005 207.67000000000002 C 351.43119615738925 207.669276437614 351.6661818724252 207.74643592613327 351.86000000000007 207.89000000000001 C 352.0430957339297 208.04399618012297 352.1755222615926 208.24960578886277 352.24000000000007 208.48000000000002 C 352.3379775169788 208.8039276574213 352.3818994060501 209.141788342585 352.37000000000006 209.48000000000002 C 352.36932387172016 209.9267650251577 352.30535488272994 210.37118115919498 352.18000000000006 210.8 C 352.0579360360773 211.24093435758834 351.87981586638335 211.6643898553514 351.6500000000001 212.06 C 351.407807158347 212.4654685639281 351.1191944667343 212.84133625533067 350.7900000000001 213.18 C 350.45375546956535 213.528812982081 350.0699719856741 213.82843342125926 349.6500000000001 214.07 C 349.34206264073646 214.25752787073412 349.0035906831806 214.3895319341809 348.6500000000001 214.45999999999998 C 348.36230386998153 214.51534841904572 348.0649582230646 214.4911458663897 347.7900000000001 214.39 C 347.5399936120595 214.27385881970665 347.3333782928075 214.08125131870892 347.2000000000001 213.83999999999997 C 347.0365885594778 213.53148290151108 346.94755345079744 213.18904017581735 346.9400000000001 212.83999999999997 C 346.9389822294395 212.72621080057903 346.9628742605313 212.61357693971772 347.0100000000001 212.50999999999996 C 347.05429523202315 212.42487757369403 347.1197206014586 212.3525653232654 347.2000000000001 212.29999999999995 L 347.8600000000001 211.91999999999996 C 347.96000000000015 211.85999999999996 348.04000000000013 211.83999999999995 348.10000000000014 211.86999999999995 C 348.16000000000014 211.89999999999995 348.20000000000016 211.94999999999996 348.2400000000001 212.03999999999994 C 348.28122808771724 212.14286746159263 348.33496574927676 212.2402669731693 348.40000000000015 212.32999999999993 C 348.4622281307817 212.41713213233925 348.54938767520434 212.48337338610048 348.65000000000015 212.51999999999992 C 348.78160615153047 212.55035067755864 348.9183938484698 212.55035067755864 349.0500000000001 212.51999999999992 C 349.26229422510465 212.46994161360354 349.4649703008581 212.38549324870627 349.65000000000015 212.26999999999992 C 349.8439508557623 212.15943463492857 350.0279705685931 212.03229374242727 350.20000000000016 211.88999999999993 C 350.5362611969692 211.62387182698407 350.80375027034853 211.28093711752334 350.98000000000013 210.88999999999993 C 351.0600836911885 210.68965399868776 351.10082590926623 210.4757573537796 351.10000000000014 210.25999999999993 C 351.1189837119497 210.10169960941963 351.0719666821088 209.94256504688124 350.97000000000014 209.81999999999994 C 350.86055415710695 209.72356761337704 350.7144542651438 209.6797376457881 350.57000000000016 209.69999999999993 C 350.3430314247928 209.70935270064643 350.1180443855227 209.7462908712729 349.90000000000015 209.80999999999995 C 349.64000000000016 209.86999999999995 349.34000000000015 209.93999999999994 348.9900000000001 209.99999999999994 C 348.7221528535964 210.067018938804 348.44474975605505 210.08731672642898 348.17000000000013 210.05999999999995 C 347.953619380619 210.04605502470034 347.74871319750673 209.95773339404852 347.59000000000015 209.80999999999995 C 347.41704772634785 209.64059145535043 347.29568575243326 209.42560738727317 347.2400000000001 209.18999999999994 C 347.15952154202574 208.84259482009324 347.1225711736514 208.48652763394017 347.1300000000001 208.12999999999994 C 347.12939406252036 207.68970504229452 347.19340949591333 207.25170470855332 347.3200000000001 206.82999999999993 C 347.43936195011617 206.396050331115 347.6141338330715 205.97928661022152 347.8400000000001 205.58999999999992 C 348.0562880539628 205.20343275098776 348.31815803849884 204.8442008491242 348.62000000000006 204.51999999999992 C 348.89431596762876 204.18976602241642 349.21418221149855 203.90020289638687 349.57 203.66 Z" stroke-linecap="round" />
</g>
<g transform="matrix(2.16 0 0 2.16 769.45 443.01)"  >
<path style="stroke: none; stroke-width: 1; stroke-dasharray: none; stroke-linecap: butt; stroke-dashoffset: 0; stroke-linejoin: miter; stroke-miterlimit: 4; fill: rgb(250,250,250); fill-rule: nonzero; opacity: 1;" vector-effect="non-scaling-stroke"  transform=" translate(-356.22, -205.1)" d="M 356.14 199.88 C 356.4723043438273 199.6623055349335 356.8539996472858 199.53163507068646 357.25 199.5 C 357.52883468786433 199.47626422389604 357.8082033717602 199.5391221777726 358.05 199.68 C 358.2636277031687 199.8261769866706 358.43034457288286 200.03109980569428 358.53000000000003 200.27 C 358.63922205156655 200.5161322683699 358.70032141189773 200.78089616313838 358.71000000000004 201.05 C 358.721749895425 201.16142240400717 358.69719793572654 201.27365993405724 358.64000000000004 201.37 C 358.60473075782716 201.4604974595421 358.54172142228924 201.537508869644 358.46000000000004 201.59 L 357.8 201.97 C 357.7 202.03 357.62 202.05 357.56 201.97 C 357.4962566976085 201.92987383910423 357.4471586092041 201.87025473175603 357.42 201.8 C 357.32859140491206 201.62451586987345 357.175394053527 201.48913216399822 356.99 201.42000000000002 C 356.6885949945631 201.37576049895034 356.3820956554319 201.45508973966668 356.14 201.64000000000001 C 355.9729266239547 201.74199923862844 355.8155963008491 201.85916011753687 355.66999999999996 201.99 C 355.52461583580134 202.12685828835907 355.3969546117308 202.28139555960237 355.28999999999996 202.45000000000002 C 355.1797544642263 202.6105059522798 355.09225744035956 202.78550000001323 355.03 202.97000000000003 C 354.96779131828856 203.1434368361471 354.9340225912929 203.3257879619236 354.92999999999995 203.51000000000002 C 354.9181820157123 203.67831044703973 354.94914281311986 203.84687478848093 355.0199999999999 204.00000000000003 C 355.0824380984797 204.10903632798247 355.1947378675807 204.18015951507977 355.31999999999994 204.19000000000003 C 355.50526892368475 204.22230554276175 355.6947310763151 204.22230554276175 355.87999999999994 204.19000000000003 L 356.74999999999994 204.00000000000003 C 357.0752910258517 203.909377588084 357.41250373231526 203.86891206330836 357.74999999999994 203.88000000000002 C 357.9914249308998 203.87781828098568 358.22686202682485 203.95512598412523 358.41999999999996 204.10000000000002 C 358.6028311788516 204.2561359052012 358.7379911385072 204.46060866468025 358.80999999999995 204.69000000000003 C 358.89827989134307 205.01575078033457 358.93870314829206 205.35261125490925 358.92999999999995 205.69000000000003 C 358.92932387172004 206.1367650251577 358.86535488272983 206.58118115919498 358.73999999999995 207.01000000000002 C 358.6179360360772 207.45093435758835 358.43981586638324 207.8743898553514 358.21 208.27 C 357.96907447947075 208.67938135426164 357.6803864705988 209.05870397057012 357.34999999999997 209.4 C 357.0123325190168 209.74024334269384 356.6325939010108 210.03596899211445 356.21999999999997 210.28 C 355.9116990855475 210.466791972193 355.5733600240211 210.5987442061883 355.21999999999997 210.67 C 354.9355789546109 210.72451020088926 354.64167147135737 210.70030605520955 354.36999999999995 210.6 C 354.11507622251 210.48745702994995 353.90424373953005 210.29419392055163 353.7699999999999 210.04999999999998 C 353.6056657730529 209.74231041584616 353.5197943099426 209.3988245634049 353.5199999999999 209.04999999999998 C 353.508250104575 208.93857759599283 353.5328020642734 208.82634006594276 353.5899999999999 208.73 C 353.6252692421728 208.6395025404579 353.6882785777107 208.562491130356 353.7699999999999 208.51 L 354.42999999999995 208.13 C 354.53 208.07 354.61999999999995 208.04999999999998 354.66999999999996 208.07999999999998 C 354.7404564498947 208.11195255841858 354.79215058151124 208.17472400395292 354.80999999999995 208.24999999999997 C 354.8552235955993 208.35092413112767 354.90874039174025 208.4479233241332 354.96999999999997 208.53999999999996 C 355.0357696084419 208.62785479543163 355.12631825984016 208.6940249637611 355.22999999999996 208.72999999999996 C 355.3616061515303 208.76035067755868 355.4983938484696 208.76035067755868 355.62999999999994 208.72999999999996 C 355.84229422510447 208.67994161360357 356.0449703008579 208.5954932487063 356.22999999999996 208.47999999999996 C 356.4191621577781 208.36688098885173 356.5996589178895 208.23986475025484 356.77 208.09999999999997 C 356.94558225792485 207.96291365057735 357.1005059152578 207.80125418205603 357.22999999999996 207.61999999999998 C 357.359409560713 207.44728165374076 357.4668967402002 207.2591790896382 357.54999999999995 207.05999999999997 C 357.6300836911883 206.8596539986878 357.67082590926606 206.64575735377966 357.66999999999996 206.42999999999998 C 357.6889837119495 206.27169960941967 357.6419666821086 206.1125650468813 357.53999999999996 205.98999999999998 C 357.43055415710677 205.8935676133771 357.2844542651436 205.84973764578814 357.14 205.86999999999998 C 356.91677700684795 205.88364756945427 356.695583124156 205.92051321656962 356.47999999999996 205.98 C 356.21999999999997 206.04 355.90999999999997 206.10999999999999 355.56999999999994 206.17 C 355.29874821730516 206.23698966573207 355.0180664511013 206.25727991389138 354.73999999999995 206.23 C 354.5230204505657 206.21858204035075 354.3172873073159 206.12990396136374 354.15999999999997 205.98 C 353.9902582052747 205.8096875122106 353.8723543008597 205.59468627474791 353.82 205.35999999999999 C 353.7311583757292 205.01732199058117 353.6907657686494 204.66388667863265 353.7 204.30999999999997 C 353.7035412769283 203.8667305689261 353.76746251709335 203.42601043936708 353.89 202.99999999999997 C 354.01371449917144 202.56756704025074 354.18826629892556 202.15132813314472 354.40999999999997 201.75999999999996 C 354.6263529855935 201.37092768795378 354.89186601704455 201.0113087719378 355.2 200.68999999999997 C 355.46929226746596 200.37274804300588 355.78644068912183 200.09946057328116 356.14 199.88 Z" stroke-linecap="round" />
</g>
<g transform="matrix(2.16 0 0 2.16 785.04 433.11)"  >
<path style="stroke: none; stroke-width: 1; stroke-dasharray: none; stroke-linecap: butt; stroke-dashoffset: 0; stroke-linejoin: miter; stroke-miterlimit: 4; fill: rgb(250,250,250); fill-rule: nonzero; opacity: 1;" vector-effect="non-scaling-stroke"  transform=" translate(-363.45, -200.51)" d="M 363.43 201.13 L 362.62 205.92 C 362.59602265658833 206.0640899850853 362.5557648892239 206.204992170861 362.5 206.33999999999997 C 362.4611905103092 206.44779397172303 362.38721646109605 206.53938088979652 362.29 206.59999999999997 L 361.53000000000003 207.03999999999996 C 361.43 207.09999999999997 361.36 207.09999999999997 361.31 207.03999999999996 C 361.2428993916769 206.95779423501756 361.2042981705469 206.85602737931129 361.2 206.74999999999997 L 360 198.3 C 360 198.3 360 198.22 360 198.19 C 360.0029187262456 198.0787629771769 360.0302285124176 197.96952383248887 360.08 197.87 C 360.1179379992387 197.78108991836288 360.18036298913563 197.7047927084888 360.26 197.65 L 360.95 197.25 C 361.0077278386235 197.22664793948383 361.0722721613765 197.22664793948383 361.13 197.25 Q 361.21999999999997 197.25 361.25 197.49 L 362.04 203.18 L 362.73 198.91 C 362.74794693643275 198.80354217065116 362.7781476346297 198.69951754352826 362.82 198.6 C 362.85966491184996 198.47350359573025 362.94529580575266 198.36646497835184 363.06 198.29999999999998 L 363.83 197.85 C 363.94 197.79 364.02 197.79999999999998 364.07 197.85 C 364.11317370710117 197.9135893063445 364.1437275416823 197.98488158703398 364.15999999999997 198.06 L 364.85999999999996 201.53 L 365.65 194.93 C 365.65947535329127 194.80016258193447 365.6970050889948 194.67392619820464 365.76 194.56 C 365.80671498910255 194.48528580278077 365.8679181659837 194.42068244940623 365.94 194.37 L 366.63 193.97 C 366.68333333333334 193.93 366.75666666666666 193.93 366.81 193.97 C 366.8674899145457 194.03619618756528 366.8962742190974 194.12254910122036 366.89 194.21 C 366.8938800735711 194.24990590643176 366.8938800735711 194.29009409356826 366.89 194.33 L 365.69 204.16000000000003 C 365.6699452672918 204.30383219033158 365.6330244127463 204.44480272586893 365.58 204.58 C 365.53433877034684 204.68673031946884 365.4577004563611 204.77730287236102 365.35999999999996 204.84 L 364.59 205.28 C 364.5 205.33 364.42999999999995 205.33 364.38 205.28 C 364.32933276135407 205.18810013763706 364.2890834912369 205.09083106818736 364.26 204.99 Z" stroke-linecap="round" />
</g>
<g transform="matrix(2.16 0 0 2.16 801.09 424.63)"  >
<path style="stroke: none; stroke-width: 1; stroke-dasharray: none; stroke-linecap: butt; stroke-dashoffset: 0; stroke-linejoin: miter; stroke-miterlimit: 4; fill: rgb(250,250,250); fill-rule: nonzero; opacity: 1;" vector-effect="non-scaling-stroke"  transform=" translate(-370.87, -196.59)" d="M 368.11 196.89 C 368.13219636114434 196.33551733738597 368.1990798846858 195.78372826816917 368.31 195.23999999999998 C 368.42431548435604 194.70859247305899 368.59877267243763 194.1919308006635 368.83 193.7 C 369.0504192177935 193.22172411731302 369.3328458767444 192.77454857397407 369.66999999999996 192.36999999999998 C 370.01192176900753 191.96864535381255 370.42142926960344 191.6302094029068 370.87999999999994 191.36999999999998 C 371.23225280972287 191.13099380236372 371.6446122279455 190.99585079975293 372.06999999999994 190.98 C 372.38771030276143 190.98345893126262 372.69197130679504 191.1087428741 372.91999999999996 191.32999999999998 C 373.16224877780377 191.60221951360813 373.33696706190847 191.92767514086205 373.42999999999995 192.27999999999997 C 373.55904027496155 192.73929357568824 373.62959779500176 193.21303692452992 373.63999999999993 193.68999999999997 C 373.63999999999993 193.86999999999998 373.63999999999993 194.06999999999996 373.63999999999993 194.28999999999996 C 373.63999999999993 194.50999999999996 373.63999999999993 194.73999999999995 373.63999999999993 194.97999999999996 C 373.63999999999993 195.21999999999997 373.63999999999993 195.44999999999996 373.63999999999993 195.66999999999996 C 373.63999999999993 195.88999999999996 373.63999999999993 196.09999999999997 373.63999999999993 196.28999999999996 C 373.6183664260553 196.84122198310072 373.5514746861775 197.38973425009831 373.43999999999994 197.92999999999995 C 373.3244848340912 198.45980029895094 373.1535437309632 198.9759753946709 372.92999999999995 199.46999999999994 C 372.7027205697405 199.94675773961112 372.4172096224762 200.39349839827176 372.0799999999999 200.79999999999995 C 371.73818522230283 201.19753479988037 371.3326565663523 201.53547534650582 370.87999999999994 201.79999999999995 C 370.5194904471198 202.0373099623335 370.10123479509286 202.17211963530085 369.66999999999996 202.18999999999994 C 369.3552663891382 202.19641367327736 369.0516626159673 202.07352643175582 368.83 201.84999999999994 C 368.569196266298 201.56998551919668 368.38944950875816 201.22431867777397 368.31 200.84999999999994 C 368.19092226447833 200.3889366253511 368.12383778252166 199.91599102755657 368.11 199.43999999999994 C 368.11 199.25999999999993 368.11 199.05999999999995 368.11 198.83999999999995 C 368.11 198.61999999999995 368.11 198.38999999999996 368.11 198.14999999999995 C 368.11 197.90999999999994 368.11 197.68999999999994 368.11 197.45999999999995 C 368.11 197.22999999999996 368.1 197.07 368.11 196.89 Z M 372.37 194.5 C 372.4149414574958 194.005631687784 372.2559999264258 193.51435786447666 371.93 193.14 C 371.67 192.91 371.31 192.92 370.88 193.14 C 370.4132290389013 193.41435857605336 370.0429202621271 193.82658910114165 369.82 194.32 C 369.53644311115085 194.9029803705477 369.3861452450449 195.54174630149834 369.38 196.19 C 369.38 196.56 369.38 196.97 369.38 197.42 C 369.38 197.86999999999998 369.38 198.26999999999998 369.38 198.63 C 369.3350585425042 199.124368312216 369.4940000735742 199.61564213552333 369.82 199.99 C 370.08 200.21 370.44 200.19 370.88 199.94 C 371.33908813162356 199.66373037803675 371.70482666387505 199.2561931563851 371.93 198.77 C 372.21370332655476 198.19062934104437 372.3640493731384 197.555075598668 372.37 196.91 C 372.37 196.53 372.37 196.12 372.37 195.67 C 372.37 195.21999999999997 372.38 194.86 372.37 194.5 Z" stroke-linecap="round" />
</g>
<g transform="matrix(2.16 0 0 2.16 816.23 416.83)"  >
<path style="stroke: none; stroke-width: 1; stroke-dasharray: none; stroke-linecap: butt; stroke-dashoffset: 0; stroke-linejoin: miter; stroke-miterlimit: 4; fill: rgb(250,250,250); fill-rule: nonzero; opacity: 1;" vector-effect="non-scaling-stroke"  transform=" translate(-377.88, -192.97)" d="M 378 187.38 C 378.79 186.93 379.38 186.85999999999999 379.79 187.19 C 380.28189181110633 187.73206913961386 380.50564387842337 188.46568247507957 380.40000000000003 189.19 C 380.40819401470696 189.86923790395144 380.30343317177665 190.54511430995348 380.09000000000003 191.19 C 379.8868024753323 191.79069483238928 379.5711928522884 192.34725373754193 379.16 192.82999999999998 L 380.46000000000004 195.66 C 380.4641965008319 195.70657232406364 380.4641965008319 195.75342767593634 380.46000000000004 195.79999999999998 C 380.4604785594738 195.890151937999 380.43993494763896 195.97917425595003 380.40000000000003 196.05999999999997 C 380.3723084189489 196.1326078569895 380.32355737990036 196.1952877643376 380.26000000000005 196.23999999999998 L 379.46000000000004 196.7 C 379.33000000000004 196.76999999999998 379.24 196.78 379.18000000000006 196.7 C 379.12709746969125 196.64752769438115 379.083178796819 196.58671722425038 379.05000000000007 196.51999999999998 L 377.82000000000005 193.85 L 376.57000000000005 194.57 L 376.57000000000005 197.95 C 376.5708644886803 198.06055653539065 376.54694520439733 198.16990183497 376.50000000000006 198.26999999999998 C 376.4588261115861 198.35690698744799 376.39703281177304 198.43243213166392 376.32000000000005 198.48999999999998 L 375.56000000000006 198.92999999999998 C 375.50795070499754 198.9736825960698 375.43204929500257 198.9736825960698 375.38000000000005 198.92999999999998 C 375.3220173396776 198.8680904415599 375.2929524122361 198.78452877516577 375.30000000000007 198.7 L 375.30000000000007 189.35 C 375.30291872624565 189.2387629771769 375.33022851241765 189.12952383248887 375.38000000000005 189.03 C 375.41526924217294 188.9395025404579 375.47827857771085 188.862491130356 375.56000000000006 188.81 Z M 376.59 192.76 L 378 192 C 378.3445687061552 191.8076364771378 378.63914406363125 191.53703818364235 378.86 191.21 C 379.0916091849957 190.82466039595275 379.20302476132696 190.37899809062793 379.18 189.93 C 379.18 189.39000000000001 379.07 189.09 378.86 189.03 C 378.55562549351237 188.9886005673364 378.2471042050309 189.06752461787815 378 189.25 L 376.64 190.03 Z" stroke-linecap="round" />
</g>
<g transform="matrix(2.16 0 0 2.16 831.2 408.4)"  >
<path style="stroke: none; stroke-width: 1; stroke-dasharray: none; stroke-linecap: butt; stroke-dashoffset: 0; stroke-linejoin: miter; stroke-miterlimit: 4; fill: rgb(250,250,250); fill-rule: nonzero; opacity: 1;" vector-effect="non-scaling-stroke"  transform=" translate(-384.81, -189.07)" d="M 384.7 183.53 C 385.06292407469806 183.29316854760526 385.47839206388124 183.14895651830201 385.90999999999997 183.11 C 386.2229279739531 183.0984714675547 386.5279665938363 183.20972084657092 386.76 183.42000000000002 C 387.0248530858608 183.69854879163933 387.208177949024 184.04444475987177 387.28999999999996 184.42000000000002 C 387.4244646562322 184.91591953110733 387.4983364719318 185.4263066213953 387.51 185.94000000000003 C 387.51 186.64000000000001 387.51 187.36 387.51 188.09000000000003 C 387.4895348831859 188.68537520240955 387.4159087652291 189.277730787789 387.28999999999996 189.86000000000004 C 387.1757144472493 190.40107600164282 387.0012979380583 190.92767969285404 386.77 191.43000000000004 C 386.54678203610973 191.89133904863056 386.2644051934549 192.3216275707713 385.93 192.71000000000004 C 385.5959290638397 193.10754666767315 385.19695685130324 193.4456587121956 384.75 193.71000000000004 L 382.38 195 C 382.3279507049975 195.04368259606983 382.2520492950025 195.04368259606983 382.2 195 C 382.14087693723326 194.93878577612918 382.1116266613793 194.85469123304907 382.12 194.77 L 382.12 185.42000000000002 C 382.1229187262456 185.3087629771769 382.1502285124176 185.1995238324889 382.2 185.10000000000002 C 382.2352692421729 185.00950254045793 382.2982785777108 184.93249113035603 382.38 184.88000000000002 Z M 386.24 186.64000000000001 C 386.2355799495632 186.36919786250186 386.19522742488755 186.10018103133055 386.12 185.84 C 386.07346453359634 185.64311245901632 385.97305141035173 185.46306134147417 385.83 185.32 C 385.70308849981154 185.1931211582017 385.5293681246927 185.1243568430505 385.34999999999997 185.13 C 385.0995561156881 185.14672732561158 384.85802103174206 185.2295393543931 384.65 185.37 L 383.39 186.09 L 383.39 192.61 L 384.7 191.86 C 384.9533065350581 191.7124397122145 385.1798339486589 191.52310336651834 385.37 191.3 C 385.5562469240297 191.08066424659742 385.7141539591451 190.83876410769727 385.84000000000003 190.58 C 385.9646107819194 190.3044774167541 386.05850974683847 190.01607345307406 386.12 189.72 C 386.18966911827033 189.41117233886078 386.2298495292289 189.0964257863519 386.24 188.78 C 386.27 188.05 386.27 187.34 386.24 186.64 Z" stroke-linecap="round" />
</g>
<g transform="matrix(2.16 0 0 2.16 528.62 125.9)"  >
<path style="stroke: none; stroke-width: 1; stroke-dasharray: none; stroke-linecap: butt; stroke-dashoffset: 0; stroke-linejoin: miter; stroke-miterlimit: 4; fill: rgb(64,169,255); fill-rule: nonzero; opacity: 1;" vector-effect="non-scaling-stroke"  transform=" translate(-244.73, -58.29)" d="M 247.38 38.39 C 249.106098630889 38.77407968834207 250.76922459221967 39.40027691264876 252.32 40.24999999999999 C 253.80494197864482 41.0482806421964 255.13574515519645 42.10479614113816 256.25 43.37 C 257.3161035548517 44.587058416752626 258.1073999456301 46.01957774488599 258.57 47.56999999999999 C 259.0418924242782 49.22962742845222 259.07634214973456 50.983118454180136 258.67 52.66 C 258.40181701553666 53.989505111783984 257.87518839208843 55.2534138080598 257.12 56.379999999999995 C 256.43055041277734 57.34337601879082 255.60919231924143 58.20512877266456 254.68 58.94 C 253.76746280735415 59.648521287991926 252.79361266007626 60.274328770950575 251.77 60.809999999999995 L 248.89000000000001 62.339999999999996 C 248.0224190099912 62.79248403761015 247.19886298445317 63.32478244436036 246.43 63.92999999999999 C 245.7343868720211 64.46358956793988 245.20113003103666 65.18036986718522 244.89 66 C 244.73765242965843 66.37445220996636 244.48507583483166 66.69968782522275 244.16 66.94 C 243.84839163706724 67.18213261881696 243.44251733460362 67.26699724569573 243.06 67.17 L 238.82 66.23 C 238.40757497806982 66.14352212946346 238.0472264279721 65.89488162989605 237.82 65.54 C 237.57722223237792 65.20876434354106 237.50666764434237 64.78172341595733 237.63 64.39 C 237.97137238293772 63.076883405366154 238.57330271532518 61.84581684986184 239.4 60.77 C 240.1542734281636 59.81837723212962 241.02815090744886 58.96802722344051 242 58.24 C 242.94687991446483 57.546902572896784 243.950422885097 56.93474136081117 245 56.41000000000001 C 246 55.900000000000006 247 55.410000000000004 247.87 54.92 C 248.679315781008 54.48500435404786 249.44023473480564 53.96543414330498 250.14000000000001 53.370000000000005 C 250.75398380545937 52.8559805335618 251.17964208464406 52.15241312995075 251.35000000000002 51.370000000000005 C 251.67286928306444 49.99093723364037 251.29922644999823 48.54120304134349 250.35000000000002 47.49 C 249.18072155857902 46.2133007005594 247.6176365498634 45.3648694233061 245.91000000000003 45.08 Q 241.17000000000002 44.03 237.91000000000003 48.269999999999996 C 237.70016972336367 48.578546675740746 237.43584875281115 48.84625637668496 237.13000000000002 49.059999999999995 C 236.78478223389956 49.23110463258794 236.38618619189097 49.25983227525523 236.02 49.13999999999999 L 231.51000000000002 48.13999999999999 C 231.18830924341506 48.07784309898096 230.90429304693276 47.8908957291445 230.72000000000003 47.61999999999999 C 230.52087920814083 47.32713967802158 230.4588408091148 46.96220791904496 230.55000000000004 46.61999999999999 C 230.9332960034247 45.230447697251996 231.646906973327 43.954181924157474 232.63000000000005 42.89999999999999 C 233.73870995558855 41.677454555247884 235.05585344834566 40.66166265852002 236.52000000000004 39.89999999999999 C 238.12090420827474 39.062397259243085 239.84637510273788 38.48836584621229 241.63000000000005 38.19999999999999 C 243.54080974646146 37.889189800281585 245.4938765167062 37.953725919646196 247.38 38.39 Z M 242.59 70.57 C 243.41505671062149 70.7637031202233 243.93454700049992 71.58067930259624 243.76 72.41 L 242.67999999999998 77.31 C 242.60606926241775 77.72495468038265 242.35872073358598 78.08870251689993 241.99999999999997 78.31 C 241.66155296427326 78.54338115352874 241.24039543436567 78.62325585747674 240.83999999999997 78.53 L 236 77.42 C 235.58354306516696 77.34978263345202 235.2183963803826 77.10148288779865 235 76.74 C 234.77351135761407 76.39864324485114 234.69755849682898 75.97909410908589 234.79 75.58 L 235.88 70.67999999999999 C 236.07384666607135 69.85418180216134 236.8886044124931 69.33167411695608 237.72 69.49999999999999 Z" stroke-linecap="round" />
</g>
<g transform="matrix(2.16 0 0 2.16 548.24 214.25)"  >
<path style="stroke: none; stroke-width: 1; stroke-dasharray: none; stroke-linecap: butt; stroke-dashoffset: 0; stroke-linejoin: miter; stroke-miterlimit: 4; fill: rgb(64,169,255); fill-rule: nonzero; opacity: 1;" vector-effect="non-scaling-stroke"  transform=" translate(-253.82, -99.19)" d="M 252.72 85.3 C 253.92411416456918 85.10683411678833 255.14934941268598 85.08327190047841 256.36 85.23 C 257.516453574387 85.3674674868084 258.6400059541902 85.70588687831538 259.68 86.23 C 260.6704431337497 86.74381436221994 261.54245120908325 87.459133486517 262.24 88.33 C 263.50825731266684 90.0535371947365 263.98781122954 92.23332772597799 263.56 94.33 C 263.3694431605935 95.12713964420433 263.062837737335 95.8919685571679 262.65 96.6 C 262.2521104361137 97.28867588902334 261.79005820448293 97.93822757696809 261.27 98.53999999999999 C 260.76 99.13999999999999 260.27 99.71 259.82 100.25999999999999 C 259.37951782033053 100.77240364503042 258.9878192782573 101.32479902487732 258.65 101.91 C 258.33312733203945 102.42291760100895 258.17322698538266 103.01732975923325 258.19 103.61999999999999 C 258.18123270175886 103.90167212204702 258.10216778772684 104.1766805186801 257.96 104.41999999999999 C 257.81368589497157 104.6468322512364 257.57691987046684 104.79981952860872 257.31 104.83999999999999 L 254.31 105.32 C 254.02677970716056 105.37139329519614 253.73479769319502 105.3065084032038 253.5 105.13999999999999 C 253.26029563022223 104.98934452480317 253.10771487422355 104.73256227690294 253.09 104.44999999999999 C 252.96429343801555 103.5194549844507 253.0323860269229 102.57296799863838 253.29 101.66999999999999 C 253.52514983036434 100.8706146468164 253.86118866760526 100.10444609790709 254.29 99.38999999999999 C 254.71051698795085 98.70435514803168 255.19250088074892 98.0583628472676 255.73 97.45999999999998 C 256.26 96.85999999999999 256.73 96.29999999999998 257.19 95.75999999999998 C 257.6006609979766 95.27774622985316 257.95619650216787 94.75115119062652 258.25 94.18999999999998 C 258.5102674137992 93.70699836723473 258.6051053143919 93.15202102302575 258.52 92.60999999999999 C 258.367341367301 91.64174575143015 257.75128492712525 90.80913613834412 256.87 90.37999999999998 C 255.795008572761 89.8606762472222 254.57801954541017 89.71294925546285 253.41 89.95999999999998 C 251.24294383920298 90.27688228388372 249.50934974486486 91.92239538497603 249.07999999999998 94.06999999999998 C 249.02139337383028 94.32209910071634 248.9199178808421 94.56225776745505 248.77999999999997 94.77999999999997 C 248.601584938004 94.96982190408525 248.3595165324156 95.08729627738552 248.09999999999997 95.10999999999997 L 244.93999999999997 95.61999999999998 C 244.7178719947741 95.66250415833431 244.48794132639006 95.61579949131881 244.29999999999998 95.48999999999998 C 244.10519492159966 95.35614489161631 243.9776233770624 95.1447406178117 243.95 94.90999999999998 C 243.85595543084295 93.91767964702431 244.01061266864258 92.91756284258682 244.4 92 C 244.7954449275802 90.93227858979674 245.37787034476497 89.94350985829699 246.12 89.08 C 246.933404365653 88.13445636678293 247.89205098415516 87.32433246382335 248.96 86.67999999999999 C 250.11230151838652 85.98118313266193 251.38921974459458 85.51252697517066 252.72 85.3 Z M 257.88 107.15 C 258.1581169893237 107.10588560601094 258.44235739374915 107.17424722226517 258.67 107.34 C 258.9083713360755 107.49671191464147 259.0684656232209 107.74776886493768 259.11 108.03 L 259.67 111.46000000000001 C 259.76024805174 112.03903255507115 259.36792814707053 112.58293060472658 258.79 112.68 L 255.44000000000003 113.23 C 255.16192784066214 113.27300332393416 254.87810789434363 113.2047428305158 254.65000000000003 113.04 C 254.41541833421644 112.88127441019186 254.25914914359453 112.63051687175208 254.22000000000003 112.35000000000001 L 253.66000000000003 108.92 C 253.60867527575374 108.64164431549344 253.67771688223922 108.35457658326435 253.85000000000002 108.13 C 254.00872558980817 107.89541833421639 254.25948312824795 107.73914914359449 254.54000000000002 107.69999999999999 Z" stroke-linecap="round" />
</g>
<g transform="matrix(2.16 0 0 2.16 540 214.84)"  >
<path style="stroke: none; stroke-width: 1; stroke-dasharray: none; stroke-linecap: butt; stroke-dashoffset: 0; stroke-linejoin: miter; stroke-miterlimit: 4; fill: rgb(64,169,255); fill-rule: nonzero; opacity: 0.2;" vector-effect="non-scaling-stroke"  transform=" translate(-253.82, -99.19)" d="M 252.72 85.3 C 253.92411416456918 85.10683411678833 255.14934941268598 85.08327190047841 256.36 85.23 C 257.516453574387 85.3674674868084 258.6400059541902 85.70588687831538 259.68 86.23 C 260.6704431337497 86.74381436221994 261.54245120908325 87.459133486517 262.24 88.33 C 263.50825731266684 90.0535371947365 263.98781122954 92.23332772597799 263.56 94.33 C 263.3694431605935 95.12713964420433 263.062837737335 95.8919685571679 262.65 96.6 C 262.2521104361137 97.28867588902334 261.79005820448293 97.93822757696809 261.27 98.53999999999999 C 260.76 99.13999999999999 260.27 99.71 259.82 100.25999999999999 C 259.37951782033053 100.77240364503042 258.9878192782573 101.32479902487732 258.65 101.91 C 258.33312733203945 102.42291760100895 258.17322698538266 103.01732975923325 258.19 103.61999999999999 C 258.18123270175886 103.90167212204702 258.10216778772684 104.1766805186801 257.96 104.41999999999999 C 257.81368589497157 104.6468322512364 257.57691987046684 104.79981952860872 257.31 104.83999999999999 L 254.31 105.32 C 254.02677970716056 105.37139329519614 253.73479769319502 105.3065084032038 253.5 105.13999999999999 C 253.26029563022223 104.98934452480317 253.10771487422355 104.73256227690294 253.09 104.44999999999999 C 252.96429343801555 103.5194549844507 253.0323860269229 102.57296799863838 253.29 101.66999999999999 C 253.52514983036434 100.8706146468164 253.86118866760526 100.10444609790709 254.29 99.38999999999999 C 254.71051698795085 98.70435514803168 255.19250088074892 98.0583628472676 255.73 97.45999999999998 C 256.26 96.85999999999999 256.73 96.29999999999998 257.19 95.75999999999998 C 257.6006609979766 95.27774622985316 257.95619650216787 94.75115119062652 258.25 94.18999999999998 C 258.5102674137992 93.70699836723473 258.6051053143919 93.15202102302575 258.52 92.60999999999999 C 258.367341367301 91.64174575143015 257.75128492712525 90.80913613834412 256.87 90.37999999999998 C 255.795008572761 89.8606762472222 254.57801954541017 89.71294925546285 253.41 89.95999999999998 C 251.24294383920298 90.27688228388372 249.50934974486486 91.92239538497603 249.07999999999998 94.06999999999998 C 249.02139337383028 94.32209910071634 248.9199178808421 94.56225776745505 248.77999999999997 94.77999999999997 C 248.601584938004 94.96982190408525 248.3595165324156 95.08729627738552 248.09999999999997 95.10999999999997 L 244.93999999999997 95.61999999999998 C 244.7178719947741 95.66250415833431 244.48794132639006 95.61579949131881 244.29999999999998 95.48999999999998 C 244.10519492159966 95.35614489161631 243.9776233770624 95.1447406178117 243.95 94.90999999999998 C 243.85595543084295 93.91767964702431 244.01061266864258 92.91756284258682 244.4 92 C 244.7954449275802 90.93227858979674 245.37787034476497 89.94350985829699 246.12 89.08 C 246.933404365653 88.13445636678293 247.89205098415516 87.32433246382335 248.96 86.67999999999999 C 250.11230151838652 85.98118313266193 251.38921974459458 85.51252697517066 252.72 85.3 Z M 257.88 107.15 C 258.1581169893237 107.10588560601094 258.44235739374915 107.17424722226517 258.67 107.34 C 258.9083713360755 107.49671191464147 259.0684656232209 107.74776886493768 259.11 108.03 L 259.67 111.46000000000001 C 259.76024805174 112.03903255507115 259.36792814707053 112.58293060472658 258.79 112.68 L 255.44000000000003 113.23 C 255.16192784066214 113.27300332393416 254.87810789434363 113.2047428305158 254.65000000000003 113.04 C 254.41541833421644 112.88127441019186 254.25914914359453 112.63051687175208 254.22000000000003 112.35000000000001 L 253.66000000000003 108.92 C 253.60867527575374 108.64164431549344 253.67771688223922 108.35457658326435 253.85000000000002 108.13 C 254.00872558980817 107.89541833421639 254.25948312824795 107.73914914359449 254.54000000000002 107.69999999999999 Z" stroke-linecap="round" />
</g>
<g transform="matrix(2.16 0 0 2.16 619.73 174.89)"  >
<path style="stroke: none; stroke-width: 1; stroke-dasharray: none; stroke-linecap: butt; stroke-dashoffset: 0; stroke-linejoin: miter; stroke-miterlimit: 4; fill: rgb(0,0,0); fill-rule: nonzero; opacity: 1;" vector-effect="non-scaling-stroke"  transform=" translate(-286.91, -80.97)" d="M 281 90.69 C 281.27554373875535 90.88155687605239 281.46001449046497 91.17815690821301 281.51 91.50999999999999 C 281.5743359606139 91.83891074880052 281.49819338424254 92.17973942398655 281.3 92.44999999999999 L 278.92 95.79999999999998 C 278.7284431239476 96.07554373875533 278.431843091787 96.26001449046498 278.1 96.30999999999999 C 277.7710892511995 96.37433596061389 277.4302605760135 96.29819338424255 277.16 96.1 L 273.88000000000005 93.77 C 273.6036587022439 93.5808215282463 273.4216302934366 93.28229493780226 273.38000000000005 92.95 C 273.31566403938615 92.62108925119948 273.3918066157575 92.28026057601345 273.59000000000003 92.01 L 276 88.66 C 276.4055373671093 88.0949256850088 277.1901629244734 87.96118269227628 277.76 88.36 Z M 294.84 68 C 296.03594884406715 68.83816160937299 297.10088323284884 69.84917526960878 298 71 C 298.8769461594581 72.07049776229448 299.55437911625614 73.28987708453093 300 74.6 C 300.41505219679044 75.8554935208031 300.55488820851565 77.18564094940832 300.41 78.5 C 300.2405305680481 79.9016117948908 299.70986736143163 81.23516154138795 298.87 82.37 C 298.2460158248834 83.28757738931282 297.443338807483 84.06984736389794 296.51 84.67 C 295.68856828882883 85.18497589574825 294.79560754391173 85.57585682559876 293.86 85.83 C 292.9485509410759 86.06821837074511 292.0185588570712 86.22879254352291 291.08000000000004 86.31 L 288.42 86.55 C 287.6223919355669 86.61374630779936 286.83237252119994 86.75099544334616 286.06 86.96 C 285.3475393931197 87.12176422285158 284.69561659306646 87.48240236756187 284.18 88 C 283.94726059289326 88.23651155857146 283.65272483369876 88.40283763435188 283.33 88.48 C 283.01855484573105 88.56934649357228 282.6831237987205 88.50226028417016 282.43 88.3 L 279.53000000000003 86.24 C 279.25288042968185 86.04206017341542 279.0629848161882 85.74467647681216 279.00000000000006 85.41 C 278.9242147195138 85.08106169394891 279.00962796351774 84.73569509862874 279.2300000000001 84.47999999999999 C 279.90743974241855 83.60095436669131 280.7540935831916 82.86650766144243 281.7200000000001 82.32 C 282.58968272623326 81.84510329250658 283.51747500197115 81.48541570734733 284.4800000000001 81.25 C 285.4090271646697 81.02460802088963 286.3559533384835 80.88072877893204 287.31000000000006 80.82 Q 288.7200000000001 80.72999999999999 289.95000000000005 80.61 C 290.7004172898803 80.54373062566512 291.4414240744058 80.39619986313517 292.16 80.17 C 292.78841729765355 79.96069839438297 293.3299015398052 79.5493110156054 293.7 79 C 294.3784146805937 78.05858913329352 294.55391259371254 76.8450397340677 294.17 75.75 C 293.69693354567795 74.41717724050164 292.792459802944 73.2804261941862 291.6 72.52 Q 288.36 70.21 284.53000000000003 72.36999999999999 C 284.2730499787401 72.53355800599088 283.9883741421888 72.64878393983311 283.69000000000005 72.71 C 283.37613545746365 72.7318501433493 283.0665416488163 72.62745223113102 282.83000000000004 72.41999999999999 L 279.75000000000006 70.22999999999999 C 279.52466006028214 70.08040192585679 279.36953005230345 69.84590307658664 279.32000000000005 69.57999999999998 C 279.2716072029817 69.30487459031745 279.3405005909023 69.0220491030645 279.51000000000005 68.79999999999998 C 280.23672410273616 67.86890125472979 281.1810659396911 67.13059763674683 282.26000000000005 66.64999999999998 C 283.48574092827437 66.09470803851814 284.7985534854347 65.7563542866727 286.14000000000004 65.64999999999998 C 287.6159410315465 65.52665500801393 289.1021191829048 65.64487372459925 290.54 65.99999999999997 C 292.0921060570015 66.37398453729975 293.5539817337702 67.053926712541 294.84 68 Z" stroke-linecap="round" />
</g>
<g transform="matrix(2.16 0 0 2.16 619.73 174.89)"  >
<path style="stroke: none; stroke-width: 1; stroke-dasharray: none; stroke-linecap: butt; stroke-dashoffset: 0; stroke-linejoin: miter; stroke-miterlimit: 4; fill: rgb(186,224,255); fill-rule: nonzero; opacity: 0.6;" vector-effect="non-scaling-stroke"  transform=" translate(-286.91, -80.97)" d="M 281 90.69 C 281.27554373875535 90.88155687605239 281.46001449046497 91.17815690821301 281.51 91.50999999999999 C 281.5743359606139 91.83891074880052 281.49819338424254 92.17973942398655 281.3 92.44999999999999 L 278.92 95.79999999999998 C 278.7284431239476 96.07554373875533 278.431843091787 96.26001449046498 278.1 96.30999999999999 C 277.7710892511995 96.37433596061389 277.4302605760135 96.29819338424255 277.16 96.1 L 273.88000000000005 93.77 C 273.6036587022439 93.5808215282463 273.4216302934366 93.28229493780226 273.38000000000005 92.95 C 273.31566403938615 92.62108925119948 273.3918066157575 92.28026057601345 273.59000000000003 92.01 L 276 88.66 C 276.4055373671093 88.0949256850088 277.1901629244734 87.96118269227628 277.76 88.36 Z M 294.84 68 C 296.03594884406715 68.83816160937299 297.10088323284884 69.84917526960878 298 71 C 298.8769461594581 72.07049776229448 299.55437911625614 73.28987708453093 300 74.6 C 300.41505219679044 75.8554935208031 300.55488820851565 77.18564094940832 300.41 78.5 C 300.2405305680481 79.9016117948908 299.70986736143163 81.23516154138795 298.87 82.37 C 298.2460158248834 83.28757738931282 297.443338807483 84.06984736389794 296.51 84.67 C 295.68856828882883 85.18497589574825 294.79560754391173 85.57585682559876 293.86 85.83 C 292.9485509410759 86.06821837074511 292.0185588570712 86.22879254352291 291.08000000000004 86.31 L 288.42 86.55 C 287.6223919355669 86.61374630779936 286.83237252119994 86.75099544334616 286.06 86.96 C 285.3475393931197 87.12176422285158 284.69561659306646 87.48240236756187 284.18 88 C 283.94726059289326 88.23651155857146 283.65272483369876 88.40283763435188 283.33 88.48 C 283.01855484573105 88.56934649357228 282.6831237987205 88.50226028417016 282.43 88.3 L 279.53000000000003 86.24 C 279.25288042968185 86.04206017341542 279.0629848161882 85.74467647681216 279.00000000000006 85.41 C 278.9242147195138 85.08106169394891 279.00962796351774 84.73569509862874 279.2300000000001 84.47999999999999 C 279.90743974241855 83.60095436669131 280.7540935831916 82.86650766144243 281.7200000000001 82.32 C 282.58968272623326 81.84510329250658 283.51747500197115 81.48541570734733 284.4800000000001 81.25 C 285.4090271646697 81.02460802088963 286.3559533384835 80.88072877893204 287.31000000000006 80.82 Q 288.7200000000001 80.72999999999999 289.95000000000005 80.61 C 290.7004172898803 80.54373062566512 291.4414240744058 80.39619986313517 292.16 80.17 C 292.78841729765355 79.96069839438297 293.3299015398052 79.5493110156054 293.7 79 C 294.3784146805937 78.05858913329352 294.55391259371254 76.8450397340677 294.17 75.75 C 293.69693354567795 74.41717724050164 292.792459802944 73.2804261941862 291.6 72.52 Q 288.36 70.21 284.53000000000003 72.36999999999999 C 284.2730499787401 72.53355800599088 283.9883741421888 72.64878393983311 283.69000000000005 72.71 C 283.37613545746365 72.7318501433493 283.0665416488163 72.62745223113102 282.83000000000004 72.41999999999999 L 279.75000000000006 70.22999999999999 C 279.52466006028214 70.08040192585679 279.36953005230345 69.84590307658664 279.32000000000005 69.57999999999998 C 279.2716072029817 69.30487459031745 279.3405005909023 69.0220491030645 279.51000000000005 68.79999999999998 C 280.23672410273616 67.86890125472979 281.1810659396911 67.13059763674683 282.26000000000005 66.64999999999998 C 283.48574092827437 66.09470803851814 284.7985534854347 65.7563542866727 286.14000000000004 65.64999999999998 C 287.6159410315465 65.52665500801393 289.1021191829048 65.64487372459925 290.54 65.99999999999997 C 292.0921060570015 66.37398453729975 293.5539817337702 67.053926712541 294.84 68 Z" stroke-linecap="round" />
</g>
<g transform="matrix(2.16 0 0 2.16 433.79 263.68)"  >
<path style="stroke: none; stroke-width: 1; stroke-dasharray: none; stroke-linecap: butt; stroke-dashoffset: 0; stroke-linejoin: miter; stroke-miterlimit: 4; fill: rgb(38,50,56); fill-rule: nonzero; opacity: 1;" vector-effect="non-scaling-stroke"  transform=" translate(-200.83, -122.08)" d="M 206.53 179.21 L 171 179.21 L 171 93.13 C 171 77.56109290226993 183.62109290226994 64.94 199.19 64.94 L 202.47 64.94 C 218.03890709773006 64.94 230.66 77.56109290226993 230.66 93.13 L 230.66 155.13 C 230.63242617244336 168.43710062561112 219.83712919360485 179.21002856802437 206.53 179.21 Z" stroke-linecap="round" />
</g>
<g transform="matrix(2.16 0 0 2.16 375.25 878.97)"  >
<path style="stroke: none; stroke-width: 1; stroke-dasharray: none; stroke-linecap: butt; stroke-dashoffset: 0; stroke-linejoin: miter; stroke-miterlimit: 4; fill: rgb(38,50,56); fill-rule: nonzero; opacity: 1;" vector-effect="non-scaling-stroke"  transform=" translate(-173.73, -406.93)" d="M 167.54 386.44 C 166.9115517628433 390.0065513205643 166.57709413787308 393.6186936702428 166.54000000000002 397.24 C 166.41 403.8 165.20999999999998 406.13 165.04999999999998 411.51 C 164.85999999999999 417.65999999999997 165.92999999999998 419.96 168.42 423.42 C 170.91 426.88000000000005 177.42 430.01 180.23999999999998 424.17 C 183.05999999999997 418.33000000000004 182.64999999999998 414.5 181.76 408.47 C 180.85 402.23 180.76 398.78000000000003 180.2 394.03000000000003 C 179.73999999999998 389.84000000000003 179.2 386.65000000000003 179.2 386.65000000000003 Z" stroke-linecap="round" />
</g>
<g transform="matrix(2.16 0 0 2.16 378.78 820.52)"  >
<path style="stroke: none; stroke-width: 1; stroke-dasharray: none; stroke-linecap: butt; stroke-dashoffset: 0; stroke-linejoin: miter; stroke-miterlimit: 4; fill: rgb(255,168,167); fill-rule: nonzero; opacity: 1;" vector-effect="non-scaling-stroke"  transform=" translate(-175.36, -379.87)" d="M 186.16 342.87 L 164.56 342.48 C 164.88 356.90000000000003 167.17000000000002 372.91 167.56 386.48 C 167.64000000000001 389.03000000000003 167.5 406.27000000000004 168.46 411.48 C 169.91 419.36 179.25 418.29 179.75 413.58000000000004 C 180.25 408.87000000000006 179.15 388.74000000000007 179.18 386.66 C 179.09 377.98 183.18 363.33000000000004 185.29000000000002 347.75 C 185.38 347 186.06 343.62 186.16 342.87 Z" stroke-linecap="round" />
</g>
<g transform="matrix(2.16 0 0 2.16 502.61 843.91)"  >
<path style="stroke: none; stroke-width: 1; stroke-dasharray: none; stroke-linecap: butt; stroke-dashoffset: 0; stroke-linejoin: miter; stroke-miterlimit: 4; fill: rgb(38,50,56); fill-rule: nonzero; opacity: 1;" vector-effect="non-scaling-stroke"  transform=" translate(-232.69, -390.7)" d="M 213.91 375.22 C 213.91 375.22 213.06 374.76000000000005 212.91 375.67 C 212.7 376.75 212.38 378.98 211.91 380.76 C 211.29 383.23 210.77 387.3 211.14 389.32 C 211.50999999999996 391.34 216.20999999999998 393.92 219.26 394.86 C 223.01898125922838 396.0200733882022 226.44713077610038 398.059822350741 229.26 400.81 C 232.26 403.65 238.79 406.33 243.26 406.3 C 248.51 406.3 252.17 404.55 253.89999999999998 401.74 C 255.62999999999997 398.93 252.31999999999996 398.59000000000003 246.31999999999996 394.74 L 241.66999999999996 391.74 C 232.15999999999997 385.53000000000003 228.66999999999996 382.21000000000004 225.99999999999997 376 Z" stroke-linecap="round" />
</g>
<g transform="matrix(2.16 0 0 2.16 491.78 783.59)"  >
<path style="stroke: none; stroke-width: 1; stroke-dasharray: none; stroke-linecap: butt; stroke-dashoffset: 0; stroke-linejoin: miter; stroke-miterlimit: 4; fill: rgb(255,168,167); fill-rule: nonzero; opacity: 1;" vector-effect="non-scaling-stroke"  transform=" translate(-227.68, -362.78)" d="M 226.08 371.37 C 225.92 366.91 229 329 229 329 L 208.49 338.35 C 212.88 364.57000000000005 213.82000000000002 370.76 213.89000000000001 375.05 L 213.89000000000001 375.05 C 213.80005055752915 375.40936897752897 213.7629939083759 375.7799354690616 213.78 376.15000000000003 C 213.78 381.24 219.55 383.99 224.03 387.39000000000004 C 227.83844097650106 390.3733707135673 231.89677308393047 393.02316381256486 236.16 395.31000000000006 C 239.42 396.94000000000005 246.04 397.09000000000003 246.85999999999999 395.00000000000006 C 241.39999999999998 390.83000000000004 233.45999999999998 384.59000000000003 229.11999999999998 379.83000000000004 C 227 377.59 226.24 375.84 226.08 371.37 Z" stroke-linecap="round" />
</g>
<g transform="matrix(2.16 0 0 2.16 427.68 602.74)"  >
<path style="stroke: none; stroke-width: 1; stroke-dasharray: none; stroke-linecap: butt; stroke-dashoffset: 0; stroke-linejoin: miter; stroke-miterlimit: 4; fill: rgb(69,90,100); fill-rule: nonzero; opacity: 1;" vector-effect="non-scaling-stroke"  transform=" translate(-198, -279.05)" d="M 173.41 202.16 C 165.53 219.45 165.53 232.82999999999998 166.84 254.9 C 168 275.15 169.93 293 169.93 293 C 169.63 296.59 164.64000000000001 303.6 163.99 319.48 C 163.39000000000001 334.32 164.99 353.19 164.99 353.19 C 164.99 353.19 176.20000000000002 359.4 184.49 353.13 C 184.49 353.13 192.49 314.94 194.83 296.36 C 196.83 280.15000000000003 200.43 259.44 200.43 259.44 L 208 296.25 C 206.36613216757874 301.4726898418753 205.18181865492392 306.82551927760335 204.45999999999998 312.24999999999994 C 203.4 323.18 209.52 344.64 209.52 344.64 C 209.52 344.64 221.10000000000002 348.09 228.17000000000002 341.82 C 228.17000000000002 341.82 230.81 306.93 231.8 293.77 C 233.12 276.14 230.34 228.42 228.17000000000002 203.14999999999998 Z" stroke-linecap="round" />
</g>
<g transform="matrix(2.16 0 0 2.16 458.21 561.73)"  >
<path style="stroke: none; stroke-width: 1; stroke-dasharray: none; stroke-linecap: butt; stroke-dashoffset: 0; stroke-linejoin: miter; stroke-miterlimit: 4; fill: rgb(38,50,56); fill-rule: nonzero; opacity: 1;" vector-effect="non-scaling-stroke"  transform=" translate(-212.13, -260.06)" d="M 200.45 259.41 L 203.56 231.67000000000002 C 203.56 231.67000000000002 217.5 229.81 223.82 223.87 C 220.1579063269747 229.59958998316046 214.1370297344399 233.40340611404977 207.39 234.25 L 202.89 260.06 L 208 296.25 Z" stroke-linecap="round" />
</g>
<g transform="matrix(2.16 0 0 2.16 505.06 373.29)"  >
<path style="stroke: none; stroke-width: 1; stroke-dasharray: none; stroke-linecap: butt; stroke-dashoffset: 0; stroke-linejoin: miter; stroke-miterlimit: 4; fill: rgb(255,168,167); fill-rule: nonzero; opacity: 1;" vector-effect="non-scaling-stroke"  transform=" translate(-233.82, -172.46)" d="M 256.9 195.34 C 257.4758936697856 190.2778796159668 257.72973783100355 185.18429611784305 257.65999999999997 180.09000000000003 C 257.34999999999997 175.69 256.55999999999995 174.97 250.40999999999997 167.18 C 242.10999999999996 156.65 235.01999999999998 147.18 227.51999999999998 137.77 C 222.15999999999997 131.05 216.51999999999998 130.02 211.04 130.32000000000002 C 207.2 130.53000000000003 214.7 149.00000000000003 218.47 159.93 L 240 183.11 C 240.66700456093338 184.02482816669223 240.97320725430083 185.15350553643037 240.86 186.28 L 239.56 206 L 246.01 214.64 C 246.01 214.64 255.78 206.22 256.9 195.34 Z" stroke-linecap="round" />
</g>
<g transform="matrix(2.16 0 0 2.16 435.95 377.08)"  >
<path style="stroke: none; stroke-width: 1; stroke-dasharray: none; stroke-linecap: butt; stroke-dashoffset: 0; stroke-linejoin: miter; stroke-miterlimit: 4; fill: rgb(186,224,255); fill-rule: nonzero; opacity: 1;" vector-effect="non-scaling-stroke"  transform=" translate(-201.83, -173.54)" d="M 190.28 130.92 L 190.28 130.92 C 186.11 131.20999999999998 178.53 131.92 178.53 131.92 C 174.16 134.35999999999999 173.05 136.36999999999998 172.24 142.17 C 171.89000000000001 144.64999999999998 173.91 151.23999999999998 175.64000000000001 160.60999999999999 L 178.92000000000002 177.98 L 178.56 186.6 C 176.86 191.85999999999999 173.01 198.39 169.61 208.01999999999998 C 186.31 217.33999999999997 200.31 217.68999999999997 213.01000000000002 216.01999999999998 C 222.69000000000003 214.76999999999998 227.82000000000002 212.42999999999998 229.53000000000003 210.10999999999999 C 229.17000000000002 200.6 228.53000000000003 194.71999999999997 228.33000000000004 184.77999999999997 C 228.26000000000005 180.60999999999999 228.51000000000005 176.39 228.68000000000004 171.58999999999997 C 235.17000000000004 166.24999999999997 235.25000000000003 157.36999999999998 231.68000000000004 151.58999999999997 C 223.45000000000005 138.25999999999996 215.44000000000003 129.86999999999998 210.14000000000004 130.29999999999998 Z" stroke-linecap="round" />
</g>
<g transform="matrix(2.16 0 0 2.16 437.57 369.14)"  >
<path style="stroke: none; stroke-width: 1; stroke-dasharray: none; stroke-linecap: butt; stroke-dashoffset: 0; stroke-linejoin: miter; stroke-miterlimit: 4; fill: rgb(0,0,0); fill-rule: nonzero; opacity: 0.1;" vector-effect="non-scaling-stroke"  transform=" translate(-202.58, -170.9)" d="M 215.75 171.72 C 215.75 171.72 208.13 177.64 199.42000000000002 174.55 C 194.4454141976025 172.98250426030435 190.6525821907965 168.92796684502872 189.42000000000002 163.86 C 189.42000000000002 163.86 188.50000000000003 173.81 199.47000000000003 177.20000000000002 C 210.1 180.47 215.75 171.72 215.75 171.72 Z" stroke-linecap="round" />
</g>
<g transform="matrix(2.16 0 0 2.16 437.55 240.54)"  >
<path style="stroke: none; stroke-width: 1; stroke-dasharray: none; stroke-linecap: butt; stroke-dashoffset: 0; stroke-linejoin: miter; stroke-miterlimit: 4; fill: rgb(255,168,167); fill-rule: nonzero; opacity: 1;" vector-effect="non-scaling-stroke"  transform=" translate(-202.57, -111.36)" d="M 226.09 103.61 C 225.76 118.05 221.09 121.61 218.73 122.61 C 216.36999999999998 123.61 211.85 123.01 207.45 122.28 L 207.45 131 C 207.45 131 212.53 136.32 212.14999999999998 140.29 C 211.76999999999995 144.26 204.14999999999998 144.70999999999998 198.46999999999997 140.82 C 195.33590372646475 138.6671989133939 192.5011862871916 136.1082191135281 190.03999999999996 133.20999999999998 C 189.56742586635926 132.65086046276906 189.30872612896127 131.9420940589389 189.30999999999997 131.20999999999998 L 189.30999999999997 110.81 C 189.30999999999997 110.81 186.89999999999998 113.36 182.64 110.44 C 180.78153420455294 109.25393258540582 179.50663902653162 107.34186144513025 179.1263173432184 105.17022463341183 C 178.7459956599052 102.9985878216934 179.29521620959278 100.76705683418336 180.64 99.02 C 182.5 96.83 187.22 96.67999999999999 189.48 100.02 C 190.76 102.50999999999999 190.92999999999998 105.02 192.35999999999999 104.02 C 196.16 101.28 194.11999999999998 95.02 198.70999999999998 92.02 L 198.70999999999998 92.02 C 200.21618885688932 91.2338521327204 201.7808408692997 90.56519742656211 203.38999999999996 90.02 C 211.57999999999998 87.19 218.67999999999998 84.81 220.39 79.21 C 223.61 81.05 226.49 86.58 226.09 103.61 Z" stroke-linecap="round" />
</g>
<g transform="matrix(2.16 0 0 2.16 453.47 247.55)" id="el9d4v0sq5ttf"  >
<circle style="stroke: none; stroke-width: 1; stroke-dasharray: none; stroke-linecap: butt; stroke-dashoffset: 0; stroke-linejoin: miter; stroke-miterlimit: 4; fill: rgb(177,102,104); fill-rule: nonzero; opacity: 1;" vector-effect="non-scaling-stroke"  cx="0" cy="0" r="1.9" />
</g>
<g transform="matrix(2.16 0 0 2.16 446.43 219.06)"  >
<path style="stroke: none; stroke-width: 1; stroke-dasharray: none; stroke-linecap: butt; stroke-dashoffset: 0; stroke-linejoin: miter; stroke-miterlimit: 4; fill: rgb(38,50,56); fill-rule: nonzero; opacity: 1;" vector-effect="non-scaling-stroke"  transform=" translate(-206.68, -101.42)" d="M 208.68 101.42 C 208.67863504836083 102.51124338691078 207.80278758134494 103.39996287217608 206.7116802375421 103.41724745689919 C 205.6205728937393 103.43453204162232 204.7170149778763 102.57400069318133 204.6810859054286 101.48334809298156 C 204.64515683298092 100.39269549278178 205.49012071107273 99.47456306568401 206.58 99.42 C 207.12753721186863 99.39258842409508 207.66232288324946 99.59113770835529 208.05931190938236 99.96922249514853 C 208.45630093551526 100.34730728194178 208.6806857289816 100.8717774880122 208.68 101.42 Z" stroke-linecap="round" />
</g>
<g transform="matrix(2.16 0 0 2.16 479.55 219.71)"  >
<path style="stroke: none; stroke-width: 1; stroke-dasharray: none; stroke-linecap: butt; stroke-dashoffset: 0; stroke-linejoin: miter; stroke-miterlimit: 4; fill: rgb(38,50,56); fill-rule: nonzero; opacity: 1;" vector-effect="non-scaling-stroke"  transform=" translate(-222.01, -101.72)" d="M 223.83 101.62 C 223.87132080709205 102.11423885759933 223.71246192304037 102.60437211380592 223.38907446591944 102.98040404069071 C 223.06568700879853 103.35643596757551 222.60485558360406 103.58687283839933 222.11 103.62 C 221.6100037511946 103.66617882993084 221.11426003030647 103.49535994547229 220.7488379241967 103.15098309154686 C 220.38341581808695 102.80660623762142 220.18352562165666 102.32185389109927 220.20000000000002 101.82000000000001 C 220.12968465583526 101.14844565522318 220.4369415780834 100.49315658363415 220.99817451923963 100.11772740073172 C 221.55940746039582 99.7422982178293 222.28236268693763 99.70844081052569 222.87622639893237 100.0297745578811 C 223.4700901109271 100.35110830523651 223.83724482975322 100.97481336057689 223.83 101.65 Z" stroke-linecap="round" />
</g>
<g transform="matrix(2.16 0 0 2.16 445.19 218.37)"  >
<path style="stroke: none; stroke-width: 1; stroke-dasharray: none; stroke-linecap: butt; stroke-dashoffset: 0; stroke-linejoin: miter; stroke-miterlimit: 4; fill: rgb(69,90,100); fill-rule: nonzero; opacity: 1;" vector-effect="non-scaling-stroke"  transform=" translate(-206.11, -101.1)" d="M 206.11 106.56 C 202.5185279036788 106.56000423721771 199.60551685421615 103.65146785910599 199.60000000000002 100.06 C 199.60000000000002 95.64 204.16000000000003 95.64 206.11 95.64 C 208.06 95.64 212.61 95.64 212.61 100.06 C 212.6044933632991 103.64756747468783 209.69756747468784 106.5544933632991 206.11 106.56 Z M 206.11 96.66 C 202.11 96.66 200.63000000000002 97.66 200.63000000000002 100.06 C 200.63000000000002 103.09756612406936 203.09243387593065 105.56 206.13000000000002 105.56 C 209.1675661240694 105.56 211.63000000000002 103.09756612406936 211.63000000000002 100.06 C 211.59 97.61 210.05 96.66 206.11 96.66 Z" stroke-linecap="round" />
</g>
<g transform="matrix(2.16 0 0 2.16 480.85 218.37)"  >
<path style="stroke: none; stroke-width: 1; stroke-dasharray: none; stroke-linecap: butt; stroke-dashoffset: 0; stroke-linejoin: miter; stroke-miterlimit: 4; fill: rgb(69,90,100); fill-rule: nonzero; opacity: 1;" vector-effect="non-scaling-stroke"  transform=" translate(-222.62, -101.1)" d="M 222.62 106.56 C 219.0285279036788 106.56000423721771 216.11551685421614 103.65146785910599 216.11 100.06 C 216.11 95.64 220.67000000000002 95.64 222.62 95.64 C 224.57 95.64 229.12 95.64 229.12 100.06 C 229.1144933632991 103.64756747468783 226.20756747468783 106.5544933632991 222.62 106.56 Z M 222.62 96.66 C 218.68 96.66 217.14000000000001 97.66 217.14000000000001 100.06 C 217.14000000000001 103.09756612406936 219.60243387593064 105.56 222.64000000000001 105.56 C 225.6775661240694 105.56 228.14000000000001 103.09756612406936 228.14000000000001 100.06 C 228.1 97.61 226.56 96.66 222.62 96.66 Z" stroke-linecap="round" />
</g>
<g transform="matrix(2.16 0 0 2.16 468.67 224.71)" id="elzmviowgpm1m"  >
<polygon style="stroke: none; stroke-width: 1; stroke-dasharray: none; stroke-linecap: butt; stroke-dashoffset: 0; stroke-linejoin: miter; stroke-miterlimit: 4; fill: rgb(242,143,143); fill-rule: nonzero; opacity: 1;" vector-effect="non-scaling-stroke"  points="-3.36,-6.08 -3.04,6.08 3.35,4.09 -3.36,-6.08 " />
</g>
<g transform="matrix(2.16 0 0 2.16 431.13 259.61)"  >
<path style="stroke: none; stroke-width: 1; stroke-dasharray: none; stroke-linecap: butt; stroke-dashoffset: 0; stroke-linejoin: miter; stroke-miterlimit: 4; fill: rgb(242,143,143); fill-rule: nonzero; opacity: 1;" vector-effect="non-scaling-stroke"  transform=" translate(-199.6, -120.19)" d="M 207.44 122.31 C 202.8 121.7 193.25 118.96000000000001 191.76 115.18 C 192.359712998301 117.09035122673134 193.5285010150148 118.77201040301804 195.10999999999999 120 C 197.95999999999998 122.45 207.44 125.2 207.44 125.2 Z" stroke-linecap="round" />
</g>
<g transform="matrix(2.16 0 0 2.16 443.61 200.29)"  >
<path style="stroke: none; stroke-width: 1; stroke-dasharray: none; stroke-linecap: butt; stroke-dashoffset: 0; stroke-linejoin: miter; stroke-miterlimit: 4; fill: rgb(38,50,56); fill-rule: nonzero; opacity: 1;" vector-effect="non-scaling-stroke"  transform=" translate(-205.38, -92.72)" d="M 207.67 92.06 L 203.42999999999998 94.65 C 202.73584974126848 93.44089425855162 203.1145393467372 91.89971563164407 204.29 91.15 C 204.85523275630777 90.806981199097 205.5362004680824 90.71016503974904 206.17463970441614 90.88205252645427 C 206.81307894074988 91.05394001315952 207.3533902142396 91.47956205315555 207.67 92.06 Z" stroke-linecap="round" />
</g>
<g transform="matrix(2.16 0 0 2.16 480.85 201.43)"  >
<path style="stroke: none; stroke-width: 1; stroke-dasharray: none; stroke-linecap: butt; stroke-dashoffset: 0; stroke-linejoin: miter; stroke-miterlimit: 4; fill: rgb(38,50,56); fill-rule: nonzero; opacity: 1;" vector-effect="non-scaling-stroke"  transform=" translate(-222.62, -93.26)" d="M 224.92 94.94 L 220.2 93.28999999999999 C 220.3846545568387 92.65776683377521 220.82203583129035 92.1297624246216 221.40885867020995 91.83067207446257 C 221.99568150912955 91.53158172430355 222.67992179740747 91.4879209498724 223.29999999999998 91.71 C 224.61485322306038 92.18249034534776 225.3276130157179 93.60361017885629 224.92 94.94 Z" stroke-linecap="round" />
</g>
<g transform="matrix(2.16 0 0 2.16 463.02 215.21)"  >
<path style="stroke: none; stroke-width: 1; stroke-dasharray: none; stroke-linecap: butt; stroke-dashoffset: 0; stroke-linejoin: miter; stroke-miterlimit: 4; fill: rgb(69,90,100); fill-rule: nonzero; opacity: 1;" vector-effect="non-scaling-stroke"  transform=" translate(-214.36, -99.64)" d="M 212.1 100.58 C 211.96298901632542 100.5800263407182 211.8317297243917 100.52492381307101 211.73579344439037 100.42710642954023 C 211.639857164389 100.32928904600944 211.58731350754235 100.1969846454884 211.59 100.06 C 211.59 99.23 213.23 98.69 214.71 98.69 C 216.19000000000003 98.69 217.14000000000001 99.23 217.14000000000001 100.06 C 217.0762270517726 100.28324997325643 216.8721799721867 100.43717143142915 216.64000000000001 100.43717143142915 C 216.40782002781333 100.43717143142915 216.20377294822742 100.28324997325643 216.14000000000001 100.06 C 216.14000000000001 99.96000000000001 215.63000000000002 99.71000000000001 214.74 99.71000000000001 C 214.02343025343848 99.69475052925957 213.31057624976265 99.81695407274684 212.64000000000001 100.07000000000001 C 212.6402435148997 100.21062236313657 212.5824132273257 100.34510510184337 212.48017876649462 100.44165987040606 C 212.37794430566353 100.53821463896875 212.24037905908332 100.58827212696313 212.1 100.58 Z" stroke-linecap="round" />
</g>
<g transform="matrix(2.16 0 0 2.16 418.4 213.91)"  >
<path style="stroke: none; stroke-width: 1; stroke-dasharray: none; stroke-linecap: butt; stroke-dashoffset: 0; stroke-linejoin: miter; stroke-miterlimit: 4; fill: rgb(69,90,100); fill-rule: nonzero; opacity: 1;" vector-effect="non-scaling-stroke"  transform=" translate(-193.71, -99.03)" d="M 200.13 100.14 L 200.07 100.14 L 188.64 99.14 C 188.10592502467313 98.6106354767282 187.46967184216166 98.19553981754959 186.76999999999998 97.92 L 200.18999999999997 99.16 C 200.4698059355328 99.19643852683674 200.66949427804693 99.44937709402129 200.63999999999996 99.72999999999999 C 200.59163989669221 99.97208986790882 200.3768265115922 100.14478298142062 200.13 100.14 Z" stroke-linecap="round" />
</g>
<g transform="matrix(2.16 0 0 2.16 350.86 241.15)"  >
<path style="stroke: none; stroke-width: 1; stroke-dasharray: none; stroke-linecap: butt; stroke-dashoffset: 0; stroke-linejoin: miter; stroke-miterlimit: 4; fill: rgb(255,168,167); fill-rule: nonzero; opacity: 1;" vector-effect="non-scaling-stroke"  transform=" translate(-162.44, -111.64)" d="M 153.2 112.06 C 156.94 107.06 159.48999999999998 103.29 162.89999999999998 99.06 C 164.83999999999997 96.63 166.07999999999998 94.89 167.89999999999998 92.4 C 169.17999999999998 90.68 169.89999999999998 89.23 171.35999999999999 88.7 C 172.93735889846434 88.05366931406147 174.35891411866518 87.07869379133378 175.52999999999997 85.84 C 176.24984883891008 85.04361564839948 176.91788630843647 84.20188843679624 177.52999999999997 83.32000000000001 C 179.67334778764595 80.43505839925662 182.21924978427342 77.87231842646098 185.08999999999997 75.71000000000001 C 188.08999999999997 73.45 191.43999999999997 71.71000000000001 194.52999999999997 69.56 C 196.36999999999998 68.27 198.33999999999997 66.13 196.09999999999997 64.13 C 195.4129593779646 63.55140764415013 194.59083980533265 63.15582709664939 193.70999999999998 62.98 C 188.26 61.8 183.51999999999998 63.669999999999995 178.18999999999997 65.03 C 175.87478348369044 65.60785598865888 173.61059869677413 66.37373237891565 171.41999999999996 67.32000000000001 C 170.34250591116586 67.74611586354098 169.33210396029924 68.32541298203785 168.41999999999996 69.04 C 167.144765144351 70.32574474063144 166.09960101526627 71.82076915828661 165.32999999999996 73.46000000000001 C 163 77.62 158 81.34 154.5 84.63 C 150.41 88.47999999999999 146.75 92.00999999999999 142.08 96.25 C 137.88000000000002 100.08 133.77 103.6 129.92000000000002 107.78 C 126.73000000000002 111.23 127.92000000000002 113.93 128.34 114.87 C 130.94 120.21000000000001 133.85 122.13000000000001 137.34 125.44 C 143.34 131.17 164.09 147.66 170.96 153.11 C 172.43606392778833 154.26934926129726 173.59527174055495 155.78285501090352 174.33 157.51000000000002 L 175.65 160.56000000000003 C 183.49 162.00000000000003 188.72 150.23000000000002 182.23000000000002 136.06000000000003 C 181.15523950413456 133.76863355782123 179.51342173266775 131.7895031205185 177.46 130.31000000000003 C 169.26 124.34 153.2 112.06 153.2 112.06 Z" stroke-linecap="round" />
</g>
<g transform="matrix(2.16 0 0 2.16 323.02 249.29)"  >
<path style="stroke: none; stroke-width: 1; stroke-dasharray: none; stroke-linecap: butt; stroke-dashoffset: 0; stroke-linejoin: miter; stroke-miterlimit: 4; fill: rgb(242,143,143); fill-rule: nonzero; opacity: 1;" vector-effect="non-scaling-stroke"  transform=" translate(-149.54, -115.41)" d="M 153.2 112.06 C 150.704582895118 115.12977759118729 147.37914115651972 117.41732049905394 143.61999999999998 118.65 C 143.61999999999998 118.65 148.61999999999998 119.93 155.46999999999997 113.78 Z" stroke-linecap="round" />
</g>
<g transform="matrix(2.16 0 0 2.16 518.79 438.07)"  >
<path style="stroke: none; stroke-width: 1; stroke-dasharray: none; stroke-linecap: butt; stroke-dashoffset: 0; stroke-linejoin: miter; stroke-miterlimit: 4; fill: rgb(69,90,100); fill-rule: nonzero; opacity: 1;" vector-effect="non-scaling-stroke"  transform=" translate(-240.18, -202.81)" d="M 254.86 184.91 L 254.86 184.91 L 253.58 183.81 L 253.58 183.81 C 253.19206466765613 183.5544363352966 252.7056630617083 183.4987414949209 252.27 183.66 L 238.38 187.44 C 236.96411279063864 187.9120609907793 235.8246916153564 188.97844234713318 235.26 190.35999999999999 L 225.26 219.19 C 225.01357806240043 219.67067452783962 225.08488120443468 220.25298352111935 225.44 220.66 L 225.44 220.66 L 226.76 221.79999999999998 L 226.76 221.79999999999998 C 227.15002895788265 222.0688493622232 227.6473364330794 222.12867582540477 228.09 221.95999999999998 L 242 218.18 C 243.41588720936136 217.7079390092207 244.5553083846436 216.64155765286682 245.12 215.26000000000002 C 247.12 209.59000000000003 253.12 192.10000000000002 255.12 186.43 C 255.36 185.72 255.24 185.18 254.86 184.91 Z" stroke-linecap="round" />
</g>
<g transform="matrix(2.16 0 0 2.16 520.23 439.3)"  >
<path style="stroke: none; stroke-width: 1; stroke-dasharray: none; stroke-linecap: butt; stroke-dashoffset: 0; stroke-linejoin: miter; stroke-miterlimit: 4; fill: rgb(64,169,255); fill-rule: nonzero; opacity: 1;" vector-effect="non-scaling-stroke"  transform=" translate(-240.85, -203.38)" d="M 226.57 220.3 L 236.57 191.47000000000003 C 237.13253448796152 190.08912082578055 238.2733322994505 189.02510748237256 239.69 188.56000000000003 L 253.57 184.78000000000003 C 254.85999999999999 184.43000000000004 255.57 185.17000000000002 255.10999999999999 186.43000000000004 C 253.10999999999999 192.10000000000002 247.10999999999999 209.59000000000003 245.10999999999999 215.26000000000005 C 244.5453083846436 216.64155765286685 243.40588720936134 217.70793900922072 241.98999999999998 218.18000000000004 L 228.11 222 C 226.83 222.3 226.14 221.56 226.57 220.3 Z" stroke-linecap="round" />
</g>
<g transform="matrix(2.16 0 0 2.16 500.37 442.93)"  >
<path style="stroke: none; stroke-width: 1; stroke-dasharray: none; stroke-linecap: butt; stroke-dashoffset: 0; stroke-linejoin: miter; stroke-miterlimit: 4; fill: rgb(55,71,79); fill-rule: nonzero; opacity: 1;" vector-effect="non-scaling-stroke"  transform=" translate(-231.65, -205.06)" d="M 238.18 189.36 C 237.45794158809173 189.9068839795951 236.89800464246423 190.63964097016935 236.56 191.48000000000002 L 226.56 220.3 C 226.3263005088419 220.76706401491006 226.3807094565018 221.326698905126 226.7 221.74 L 225.45999999999998 220.68 L 225.45999999999998 220.68 C 225.0961664881776 220.2776352915043 225.02042670926056 219.69164858093566 225.26999999999998 219.21 L 235.26999999999998 190.38 C 235.58625117038125 189.59620278281676 236.0994742920129 188.9073126866669 236.76 188.38 Z" stroke-linecap="round" />
</g>
<g transform="matrix(2.16 0 0 2.16 528.87 442.44)"  >
<path style="stroke: none; stroke-width: 1; stroke-dasharray: none; stroke-linecap: butt; stroke-dashoffset: 0; stroke-linejoin: miter; stroke-miterlimit: 4; fill: rgb(242,143,143); fill-rule: nonzero; opacity: 1;" vector-effect="non-scaling-stroke"  transform=" translate(-244.85, -204.83)" d="M 251.05 198.05 C 250.05 200.98000000000002 246.58 202.94 240.84 204.3 C 235.1 205.66000000000003 231.93 211.75 232.84 213.60000000000002 C 233.75 215.45000000000005 243.03 217.18000000000004 246.74 216.65000000000003 C 250.45000000000002 216.12000000000003 254.17000000000002 210.76000000000005 255.3 209.10000000000002 C 256.43 207.44 257.73 195.86 256.54 194.27 C 255.35000000000002 192.68 252.84000000000003 192.93 252.84000000000003 192.93 Z" stroke-linecap="round" />
</g>
<g transform="matrix(0 0 0 0 0 0)"  >
<g style=""   >
</g>
</g>
<g transform="matrix(0 0 0 0 0 0)"  >
<g style=""   >
</g>
</g>
<g transform="matrix(0 0 0 0 0 0)"  >
<g style=""   >
</g>
</g>
<g transform="matrix(0 0 0 0 0 0)"  >
<g style=""   >
</g>
</g>
<g transform="matrix(0 0 0 0 0 0)"  >
<g style=""   >
</g>
</g>
<g transform="matrix(0 0 0 0 0 0)"  >
<g style=""   >
</g>
</g>
<g transform="matrix(0 0 0 0 0 0)"  >
<g style=""   >
</g>
</g>
<g transform="matrix(0 0 0 0 0 0)"  >
<g style=""   >
</g>
</g>
<g transform="matrix(0 0 0 0 0 0)"  >
<g style=""   >
</g>
</g>
<g transform="matrix(0 0 0 0 0 0)"  >
<g style=""   >
</g>
</g>
<g transform="matrix(0 0 0 0 0 0)"  >
<g style=""   >
</g>
</g>
<g transform="matrix(0 0 0 0 0 0)"  >
<g style=""   >
</g>
</g>
<g transform="matrix(0 0 0 0 0 0)"  >
<g style=""   >
</g>
</g>
<g transform="matrix(0 0 0 0 0 0)"  >
<g style=""   >
</g>
</g>
<g transform="matrix(0 0 0 0 0 0)"  >
<g style=""   >
</g>
</g>
<g transform="matrix(0 0 0 0 0 0)"  >
<g style=""   >
</g>
</g>
<g transform="matrix(0 0 0 0 0 0)"  >
<g style=""   >
</g>
</g>
<g transform="matrix(0 0 0 0 0 0)"  >
<g style=""   >
</g>
</g>
<g transform="matrix(0 0 0 0 0 0)"  >
<g style=""   >
</g>
</g>
<g transform="matrix(0 0 0 0 0 0)"  >
<g style=""   >
</g>
</g>
<g transform="matrix(0 0 0 0 0 0)"  >
<g style=""   >
</g>
</g>
<g transform="matrix(0 0 0 0 0 0)"  >
<g style=""   >
</g>
</g>
<g transform="matrix(0 0 0 0 0 0)"  >
<g style=""   >
</g>
</g>
<g transform="matrix(0 0 0 0 0 0)"  >
<g style=""   >
</g>
</g>
<g transform="matrix(0 0 0 0 0 0)"  >
<g style=""   >
</g>
</g>
<g transform="matrix(0 0 0 0 0 0)"  >
<g style=""   >
</g>
</g>
<g transform="matrix(0 0 0 0 0 0)"  >
<g style=""   >
</g>
</g>
<g transform="matrix(0 0 0 0 0 0)"  >
<g style=""   >
</g>
</g>
<g transform="matrix(NaN NaN NaN NaN 0 0)"  >
<g style=""   >
</g>
</g>
<g transform="matrix(NaN NaN NaN NaN 0 0)"  >
<g style=""   >
</g>
</g>
<g transform="matrix(NaN NaN NaN NaN 0 0)"  >
<g style=""   >
</g>
</g>
<g transform="matrix(NaN NaN NaN NaN 0 0)"  >
<g style=""   >
</g>
</g>
<g transform="matrix(NaN NaN NaN NaN 0 0)"  >
<g style=""   >
</g>
</g>
<g transform="matrix(NaN NaN NaN NaN 0 0)"  >
<g style=""   >
</g>
</g>
<g transform="matrix(NaN NaN NaN NaN 0 0)"  >
<g style=""   >
</g>
</g>
<g transform="matrix(NaN NaN NaN NaN 0 0)"  >
<g style=""   >
</g>
</g>
<g transform="matrix(NaN NaN NaN NaN 0 0)"  >
<g style=""   >
</g>
</g>
<g transform="matrix(NaN NaN NaN NaN 0 0)"  >
<g style=""   >
</g>
</g>
<g transform="matrix(NaN NaN NaN NaN 0 0)"  >
<g style=""   >
</g>
</g>
<g transform="matrix(NaN NaN NaN NaN 0 0)"  >
<g style=""   >
</g>
</g>
<g transform="matrix(NaN NaN NaN NaN 0 0)"  >
<g style=""   >
</g>
</g>
<g transform="matrix(NaN NaN NaN NaN 0 0)"  >
<g style=""   >
</g>
</g>
</svg>