<?xml version="1.0" encoding="UTF-8" standalone="no" ?>
<!DOCTYPE svg PUBLIC "-//W3C//DTD SVG 1.1//EN" "http://www.w3.org/Graphics/SVG/1.1/DTD/svg11.dtd">
<svg xmlns="http://www.w3.org/2000/svg" xmlns:xlink="http://www.w3.org/1999/xlink" version="1.1" width="1080" height="1080" viewBox="0 0 1080 1080" xml:space="preserve">
<desc>Created with Fabric.js 5.2.4</desc>
<defs>
</defs>
<g transform="matrix(1 0 0 1 540 540)" id="d8a8f327-895e-494c-9aab-8662d087b571"  >
<rect style="stroke: none; stroke-width: 1; stroke-dasharray: none; stroke-linecap: butt; stroke-dashoffset: 0; stroke-linejoin: miter; stroke-miterlimit: 4; fill: rgb(255,255,255); fill-rule: nonzero; opacity: 1; visibility: hidden;" vector-effect="non-scaling-stroke"  x="-540" y="-540" rx="0" ry="0" width="1080" height="1080" />
</g>
<g transform="matrix(1 0 0 1 540 540)" id="0148f812-684a-4d03-bbe8-ee8a79a48f22"  >
</g>
<g transform="matrix(1 0 0 1 50 50)"  >
<rect style="stroke: none; stroke-width: 1; stroke-dasharray: none; stroke-linecap: butt; stroke-dashoffset: 0; stroke-linejoin: miter; stroke-miterlimit: 4; fill: rgb(255,255,255); fill-opacity: 0; fill-rule: nonzero; opacity: 1;" vector-effect="non-scaling-stroke"  x="-50" y="-50" rx="0" ry="0" width="100" height="100" />
</g>
<g transform="matrix(1 0 0 1 540 540)" id="edb1dc08-8116-4ae8-a283-678543dc239d"  >
<rect style="stroke: none; stroke-width: 1; stroke-dasharray: none; stroke-linecap: butt; stroke-dashoffset: 0; stroke-linejoin: miter; stroke-miterlimit: 4; fill: rgb(255,255,255); fill-rule: nonzero; opacity: 1; visibility: hidden;" vector-effect="non-scaling-stroke"  x="-540" y="-540" rx="0" ry="0" width="1080" height="1080" />
</g>
<g transform="matrix(2.16 0 0 2.16 540 757.62)" id="el4opq58g8mp6"  >
<ellipse style="stroke: none; stroke-width: 1; stroke-dasharray: none; stroke-linecap: butt; stroke-dashoffset: 0; stroke-linejoin: miter; stroke-miterlimit: 4; fill: rgb(245,245,245); fill-rule: nonzero; opacity: 1;" vector-effect="non-scaling-stroke"  cx="0" cy="0" rx="224.57" ry="129.66" />
</g>
<g transform="matrix(2.16 0 0 2.16 201.64 664.55)"  >
<path style="stroke: none; stroke-width: 1; stroke-dasharray: none; stroke-linecap: butt; stroke-dashoffset: 0; stroke-linejoin: miter; stroke-miterlimit: 4; fill: rgb(64,169,255); fill-rule: nonzero; opacity: 1;" vector-effect="non-scaling-stroke"  transform=" translate(-93.36, -307.65)" d="M 98.66 330.05 L 89.50999999999999 335.37 C 89.50999999999999 335.37 94.13 320.63 91.57 305.81 C 90.95001100474029 302.3373475504751 89.6884887826635 299.01059136806293 87.85 296 C 87.13 294.5 81.61999999999999 285.26 86.47 281 C 91.32000000000001 276.74 102.72 285.21 102.2 308 C 101.95367710648877 315.4697870026344 100.7642522287311 322.87849280900633 98.66 330.05 Z" stroke-linecap="round" />
</g>
<g transform="matrix(2.16 0 0 2.16 202.45 664.55)"  >
<path style="stroke: none; stroke-width: 1; stroke-dasharray: none; stroke-linecap: butt; stroke-dashoffset: 0; stroke-linejoin: miter; stroke-miterlimit: 4; fill: rgb(64,169,255); fill-rule: nonzero; opacity: 0.3;" vector-effect="non-scaling-stroke"  transform=" translate(-93.36, -307.65)" d="M 98.66 330.05 L 89.50999999999999 335.37 C 89.50999999999999 335.37 94.13 320.63 91.57 305.81 C 90.95001100474029 302.3373475504751 89.6884887826635 299.01059136806293 87.85 296 C 87.13 294.5 81.61999999999999 285.26 86.47 281 C 91.32000000000001 276.74 102.72 285.21 102.2 308 C 101.95367710648877 315.4697870026344 100.7642522287311 322.87849280900633 98.66 330.05 Z" stroke-linecap="round" />
</g>
<g transform="matrix(2.16 0 0 2.16 202.07 663.55)"  >
<path style="stroke: none; stroke-width: 1; stroke-dasharray: none; stroke-linecap: butt; stroke-dashoffset: 0; stroke-linejoin: miter; stroke-miterlimit: 4; fill: rgb(255,255,255); fill-rule: nonzero; opacity: 1;" vector-effect="non-scaling-stroke"  transform=" translate(-93.56, -308.34)" d="M 94.41 333 L 94.25999999999999 333 C 94.15510950986496 332.9617150404797 94.06978144387531 332.8832385857822 94.02287082731841 332.78191165401927 C 93.9759602107615 332.6805847222563 93.97132879915428 332.56474870534464 94.00999999999999 332.46 C 94.00999999999999 332.35999999999996 97.44999999999999 322.89 97.27 307.65 C 97.09 292.40999999999997 89.19 284.47999999999996 89.11 284.4 C 88.94741124801996 284.233043877838 88.94741124801996 283.96695612216195 89.11 283.79999999999995 C 89.18899736035434 283.7193736567104 89.29712311939464 283.67393876913394 89.41 283.67393876913394 C 89.52287688060535 283.67393876913394 89.63100263964566 283.7193736567104 89.71 283.79999999999995 C 89.78999999999999 283.87999999999994 97.94 292.13999999999993 98.11999999999999 307.63999999999993 C 98.29999999999998 323.13999999999993 94.83999999999999 332.63999999999993 94.80999999999999 332.74999999999994 C 94.73637247891766 332.90380065204903 94.58051152231616 333.001213749925 94.41 333 Z" stroke-linecap="round" />
</g>
<g transform="matrix(2.16 0 0 2.16 173.75 692.71)"  >
<path style="stroke: none; stroke-width: 1; stroke-dasharray: none; stroke-linecap: butt; stroke-dashoffset: 0; stroke-linejoin: miter; stroke-miterlimit: 4; fill: rgb(64,169,255); fill-rule: nonzero; opacity: 1;" vector-effect="non-scaling-stroke"  transform=" translate(-80.45, -320.7)" d="M 91.57 334.2 L 76.46 343.09 C 76.46 343.09 69.53999999999999 342.09 70.05999999999999 335.56 C 70.57999999999998 329.03000000000003 73.39999999999999 327.51 69.89999999999999 324.65 C 66.39999999999999 321.78999999999996 65.49 321.65 65.66 318.78999999999996 C 65.83 315.92999999999995 67.66 314.78999999999996 68.6 313.65 C 69.53999999999999 312.51 71.96 310.21 70.22 306.83 C 68.48 303.45 66.12 300.18 69.63 298.63 C 71.72 297.7 75.22999999999999 298.86 77.57 301.34 C 79.91 303.81999999999994 81.82 305.59 84.02999999999999 306.15999999999997 C 86.23999999999998 306.72999999999996 90.83999999999999 306.78999999999996 90.68999999999998 310.59 C 90.53999999999998 314.39 89.53999999999998 315.71 90.46999999999998 317.4 C 92.21 320.58 99.63 322.3 91.57 334.2 Z" stroke-linecap="round" />
</g>
<g transform="matrix(2.16 0 0 2.16 169.69 689.54)"  >
<path style="stroke: none; stroke-width: 1; stroke-dasharray: none; stroke-linecap: butt; stroke-dashoffset: 0; stroke-linejoin: miter; stroke-miterlimit: 4; fill: rgb(255,255,255); fill-rule: nonzero; opacity: 1;" vector-effect="non-scaling-stroke"  transform=" translate(-78.55, -319.23)" d="M 85.41 338.25 L 85.41 338.25 C 85.29850182288592 338.24232167958814 85.19466204896152 338.19052070975926 85.12146553962764 338.1060631989894 C 85.04826903029375 338.02160568821955 85.01175291127471 337.91145755080595 85.02 337.8 C 85.02 337.58 86.64999999999999 315.44 71.28999999999999 300.92 C 71.2099500115885 300.84273501296207 71.16473672049808 300.7362559160974 71.16473672049808 300.625 C 71.16473672049808 300.5137440839027 71.2099500115885 300.407264987038 71.28999999999999 300.33000000000004 C 71.45695612216197 300.16741124802 71.72304387783801 300.16741124802 71.88999999999999 300.33000000000004 C 87.54999999999998 315.13000000000005 85.88999999999999 337.66 85.88999999999999 337.89000000000004 C 85.85398835345839 338.12024467488123 85.64111814891757 338.27989732828684 85.41 338.25 Z" stroke-linecap="round" />
</g>
<g transform="matrix(2.16 0 0 2.16 183.86 677.17)"  >
<path style="stroke: none; stroke-width: 1; stroke-dasharray: none; stroke-linecap: butt; stroke-dashoffset: 0; stroke-linejoin: miter; stroke-miterlimit: 4; fill: rgb(255,255,255); fill-rule: nonzero; opacity: 1;" vector-effect="non-scaling-stroke"  transform=" translate(-85.13, -313.87)" d="M 82.71 318.94 L 82.71 318.94 C 82.4762417229239 318.91880682284665 82.30266564332308 318.71407606229184 82.32 318.48 C 82.55491057054785 314.7308581536378 84.34586633167221 311.25045829396294 87.25999999999999 308.88 C 87.4514107020351 308.748576203952 87.7125860083094 308.79284320501546 87.85 308.98 C 87.91683685573615 309.06998633657304 87.94492984255983 309.1829561813445 87.92802653403838 309.2937667594296 C 87.91112322551692 309.4045773375147 87.85062627707565 309.5040334633474 87.75999999999999 309.57 C 85.05693844578042 311.81074040647746 83.39661691186409 315.06627282592126 83.16999999999999 318.57 C 83.13891957409018 318.7957319042079 82.93714734005117 318.9580269620219 82.71 318.94 Z" stroke-linecap="round" />
</g>
<g transform="matrix(2.16 0 0 2.16 167.19 695.99)"  >
<path style="stroke: none; stroke-width: 1; stroke-dasharray: none; stroke-linecap: butt; stroke-dashoffset: 0; stroke-linejoin: miter; stroke-miterlimit: 4; fill: rgb(255,255,255); fill-rule: nonzero; opacity: 1;" vector-effect="non-scaling-stroke"  transform=" translate(-77.41, -320.72)" d="M 83.82 322.78 C 83.7006878645013 322.78322820873 83.58646646368092 322.731644350295 83.50999999999999 322.64 C 83.50999999999999 322.64 79.66999999999999 318.53999999999996 71.02999999999999 319.71999999999997 C 70.91800335315095 319.7400703014881 70.80270288738437 319.7126974502262 70.71167826334977 319.6444289822003 C 70.62065363931515 319.5761605141743 70.56209157168908 319.4731364653917 70.54999999999998 319.35999999999996 C 70.52010267171315 319.1288818510824 70.67975532511878 318.9160116465415 70.90999999999998 318.87999999999994 C 80.01999999999998 317.62999999999994 83.96999999999998 321.87999999999994 84.13999999999999 322.0799999999999 C 84.22004998841147 322.1572649870379 84.2652632795019 322.26374408390257 84.2652632795019 322.3749999999999 C 84.2652632795019 322.48625591609726 84.22004998841147 322.59273501296195 84.13999999999999 322.6699999999999 C 84.0564451272133 322.75475569454653 83.93800703850411 322.79546878754036 83.82 322.78 Z" stroke-linecap="round" />
</g>
<g transform="matrix(2.16 0 0 2.16 702.31 753.56)"  >
<path style="stroke: none; stroke-width: 1; stroke-dasharray: none; stroke-linecap: butt; stroke-dashoffset: 0; stroke-linejoin: miter; stroke-miterlimit: 4; fill: rgb(224,224,224); fill-rule: nonzero; opacity: 1;" vector-effect="non-scaling-stroke"  transform=" translate(-325.15, -348.88)" d="M 436.11 372 L 285.2 284.91 C 279.71940381631106 281.75053276216767 272.97059618368894 281.75053276216767 267.49 284.91 L 214.15 315.71000000000004 C 212.36714373907708 316.74395826217307 211.26972412480913 318.6490181623731 211.26972412480913 320.71000000000004 C 211.26972412480913 322.77098183762695 212.36714373907708 324.676041737827 214.15 325.71000000000004 L 365.06 412.84000000000003 C 370.54059618368893 415.9994672378324 377.28940381631105 415.9994672378324 382.77 412.84000000000003 L 436.11 382.04 C 437.9124347394099 381.0113337148026 439.02503926728485 379.0953133055357 439.02503926728485 377.02 C 439.02503926728485 374.94468669446434 437.9124347394099 373.0286662851974 436.11 372 Z" stroke-linecap="round" />
</g>
<g transform="matrix(2.16 0 0 2.16 319.16 830.07)" id="elivquymheid"  >
<ellipse style="stroke: none; stroke-width: 1; stroke-dasharray: none; stroke-linecap: butt; stroke-dashoffset: 0; stroke-linejoin: miter; stroke-miterlimit: 4; fill: rgb(224,224,224); fill-rule: nonzero; opacity: 1;" vector-effect="non-scaling-stroke"  cx="0" cy="0" rx="48.06" ry="27.75" />
</g>
<g transform="matrix(2.16 0 0 2.16 667.54 469.62)"  >
<path style="stroke: none; stroke-width: 1; stroke-dasharray: none; stroke-linecap: butt; stroke-dashoffset: 0; stroke-linejoin: miter; stroke-miterlimit: 4; fill: rgb(69,90,100); fill-rule: nonzero; opacity: 1;" vector-effect="non-scaling-stroke"  transform=" translate(-309.06, -217.41)" d="M 369.92 403.58 L 248.2 333.31 C 239.61999999999998 328.36 232.64999999999998 315.05 232.64999999999998 303.6 L 232.64999999999998 43 C 232.64999999999998 31.55 239.64999999999998 26.29 248.2 31.240000000000002 L 369.92 101.5 C 378.5 106.5 385.46000000000004 119.75 385.46000000000004 131.2 L 385.46000000000004 391.83 C 385.46 403.28 378.5 408.54 369.92 403.58 Z" stroke-linecap="round" />
</g>
<g transform="matrix(2.16 0 0 2.16 688.46 459.42)"  >
<path style="stroke: none; stroke-width: 1; stroke-dasharray: none; stroke-linecap: butt; stroke-dashoffset: 0; stroke-linejoin: miter; stroke-miterlimit: 4; fill: rgb(55,71,79); fill-rule: nonzero; opacity: 1;" vector-effect="non-scaling-stroke"  transform=" translate(-318.73, -212.7)" d="M 383.93 93.33 L 262.22 23.06 C 258.55 20.939999999999998 255.17000000000002 20.689999999999998 252.51000000000002 21.99 L 252.51000000000002 21.99 C 252.18243736726163 22.153832738629617 251.86518073984317 22.337507628187662 251.56000000000003 22.54 L 237.93000000000004 30.47 C 240.67000000000004 28.83 244.26000000000005 28.95 248.20000000000005 31.22 L 369.92 101.5 C 378.5 106.5 385.46000000000004 119.75 385.46000000000004 131.2 L 385.46000000000004 391.83 C 385.46000000000004 397.88 383.52000000000004 402.21 380.46000000000004 404.2 L 393.92 396.36 L 393.92 396.36 C 397.35 394.54 399.53000000000003 390.07 399.53000000000003 383.66 L 399.53000000000003 123 C 399.48 111.59 392.52 98.28 383.93 93.33 Z" stroke-linecap="round" />
</g>
<g transform="matrix(2.16 0 0 2.16 842.38 569.38)"  >
<path style="stroke: none; stroke-width: 1; stroke-dasharray: none; stroke-linecap: butt; stroke-dashoffset: 0; stroke-linejoin: miter; stroke-miterlimit: 4; fill: rgb(38,50,56); fill-rule: nonzero; opacity: 1;" vector-effect="non-scaling-stroke"  transform=" translate(-390, -263.6)" d="M 385.46 131.2 L 385.46 391.83 C 385.46 397.88 383.52 402.21 380.46 404.2 L 393.91999999999996 396.36 L 393.91999999999996 396.36 C 397.34999999999997 394.54 399.53 390.07 399.53 383.66 L 399.53 123 L 385.53 131.14 Z" stroke-linecap="round" />
</g>
<g transform="matrix(2.16 0 0 2.16 847.73 325.01)" id="elv248c83p3d"  >
<polygon style="stroke: none; stroke-width: 1; stroke-dasharray: none; stroke-linecap: butt; stroke-dashoffset: 0; stroke-linejoin: miter; stroke-miterlimit: 4; fill: rgb(55,71,79); fill-rule: nonzero; opacity: 1;" vector-effect="non-scaling-stroke"  points="7.01,-7.21 -7.01,0.88 -7.01,7.21 7.01,-0.89 7.01,-7.21 " />
</g>
<g transform="matrix(2.16 0 0 2.16 849.61 379.07)"  >
<path style="stroke: none; stroke-width: 1; stroke-dasharray: none; stroke-linecap: butt; stroke-dashoffset: 0; stroke-linejoin: miter; stroke-miterlimit: 4; fill: rgb(55,71,79); fill-rule: nonzero; opacity: 1;" vector-effect="non-scaling-stroke"  transform=" translate(-393.34, -175.49)" d="M 393.34 185.32 L 393.34 185.32 C 392.09 186.04 391.07 185.32 391.07 183.6 L 391.07 170 C 391.09739173554675 168.2756631595339 391.9392933918401 166.66603620432974 393.34 165.66 L 393.34 165.66 C 394.59 164.94 395.60999999999996 165.71 395.60999999999996 167.38 L 395.60999999999996 181 C 395.57476790997896 182.71684429453447 394.73390038587405 184.31708557388833 393.34 185.32 Z" stroke-linecap="round" />
</g>
<g transform="matrix(2.16 0 0 2.16 846.83 377.92)"  >
<path style="stroke: none; stroke-width: 1; stroke-dasharray: none; stroke-linecap: butt; stroke-dashoffset: 0; stroke-linejoin: miter; stroke-miterlimit: 4; fill: rgb(69,90,100); fill-rule: nonzero; opacity: 1;" vector-effect="non-scaling-stroke"  transform=" translate(-392.04, -174.97)" d="M 391.07 183.6 L 391.07 170 C 391.09739173554675 168.2756631595339 391.9392933918401 166.66603620432974 393.34 165.66 C 393.7616389567171 165.3709742334869 394.3031537568087 165.32174561529675 394.77 165.53 L 394.77 165.53 L 393.08 164.65 L 393.08 164.65 C 392.60476230936695 164.40776547769877 392.0342059936638 164.4501716903524 391.59999999999997 164.76000000000002 C 390.1992933918401 165.76603620432977 389.35739173554674 167.37566315953393 389.33 169.10000000000002 L 389.33 182.7 C 389.2540375714976 183.39845553123834 389.55013283343527 184.08554838265795 390.10999999999996 184.51 L 390.10999999999996 184.51 L 391.88999999999993 185.44 L 391.88999999999993 185.44 C 391.3051895559525 185.01914393549012 390.99194863565185 184.31626187042525 391.07 183.6 Z" stroke-linecap="round" />
</g>
<g transform="matrix(2.16 0 0 2.16 849.61 450.14)"  >
<path style="stroke: none; stroke-width: 1; stroke-dasharray: none; stroke-linecap: butt; stroke-dashoffset: 0; stroke-linejoin: miter; stroke-miterlimit: 4; fill: rgb(55,71,79); fill-rule: nonzero; opacity: 1;" vector-effect="non-scaling-stroke"  transform=" translate(-393.34, -208.4)" d="M 393.34 218.22 L 393.34 218.22 C 392.09 218.94 391.07 218.22 391.07 216.5 L 391.07 202.91 C 391.098973493887 201.18606557894756 391.9405261423665 199.57710588978412 393.34 198.57 L 393.34 198.57 C 394.59 197.85 395.60999999999996 198.62 395.60999999999996 200.29 L 395.60999999999996 213.88 C 395.5826082644532 215.6043368404661 394.7407066081598 217.21396379567025 393.34 218.22 Z" stroke-linecap="round" />
</g>
<g transform="matrix(2.16 0 0 2.16 846.83 449)"  >
<path style="stroke: none; stroke-width: 1; stroke-dasharray: none; stroke-linecap: butt; stroke-dashoffset: 0; stroke-linejoin: miter; stroke-miterlimit: 4; fill: rgb(69,90,100); fill-rule: nonzero; opacity: 1;" vector-effect="non-scaling-stroke"  transform=" translate(-392.04, -207.88)" d="M 391.07 216.5 L 391.07 202.91 C 391.098973493887 201.18606557894756 391.9405261423665 199.57710588978412 393.34 198.57 C 393.7616389567171 198.2809742334869 394.3031537568087 198.23174561529675 394.77 198.44 L 394.77 198.44 L 393.08 197.56 L 393.08 197.56 C 392.6026003059207 197.32879818059862 392.03797522870184 197.3707635579595 391.59999999999997 197.67000000000002 C 390.20052614236647 198.67710588978414 389.358973493887 200.28606557894759 389.33 202.01000000000002 L 389.33 215.6 C 389.2540375714976 216.29845553123835 389.55013283343527 216.98554838265795 390.10999999999996 217.41 L 390.10999999999996 217.41 L 391.88999999999993 218.34 L 391.88999999999993 218.34 C 391.3051895559525 217.91914393549013 390.99194863565185 217.21626187042526 391.07 216.5 Z" stroke-linecap="round" />
</g>
<g transform="matrix(2.16 0 0 2.16 667.57 469.35)"  >
<path style="stroke: none; stroke-width: 1; stroke-dasharray: none; stroke-linecap: butt; stroke-dashoffset: 0; stroke-linejoin: miter; stroke-miterlimit: 4; fill: rgb(64,169,255); fill-rule: nonzero; opacity: 1;" vector-effect="non-scaling-stroke"  transform=" translate(-309.06, -217.28)" d="M 365.68 108.82 L 246.07 39.75 C 245.04864902555883 39.16032241653486 243.79024527617204 39.16052397165614 242.76908324825249 39.75052869889855 C 241.74792122033293 40.340533426140965 241.11924358356634 41.43064556079719 241.12 42.61 L 241.12 303.61 C 241.12 312.33000000000004 247.29 323.03000000000003 254.84 327.38 L 371.55 394.77 C 372.6744114666208 395.4215726598751 374.061358226043 395.42235042815463 375.1864997595775 394.7720392665705 C 376.3116412931119 394.1217281049864 377.0033031789792 392.9195526793377 377 391.62 L 377 128.43 C 377 121.24 371.91 112.42 365.68 108.82 Z" stroke-linecap="round" />
</g>
<g transform="matrix(2.16 0 0 2.16 668.68 469.45)"  >
<path style="stroke: none; stroke-width: 1; stroke-dasharray: none; stroke-linecap: butt; stroke-dashoffset: 0; stroke-linejoin: miter; stroke-miterlimit: 4; fill: rgb(255,255,255); fill-rule: nonzero; opacity: 0.5;" vector-effect="non-scaling-stroke"  transform=" translate(-309.06, -217.28)" d="M 365.68 108.82 L 246.07 39.75 C 245.04864902555883 39.16032241653486 243.79024527617204 39.16052397165614 242.76908324825249 39.75052869889855 C 241.74792122033293 40.340533426140965 241.11924358356634 41.43064556079719 241.12 42.61 L 241.12 303.61 C 241.12 312.33000000000004 247.29 323.03000000000003 254.84 327.38 L 371.55 394.77 C 372.6744114666208 395.4215726598751 374.061358226043 395.42235042815463 375.1864997595775 394.7720392665705 C 376.3116412931119 394.1217281049864 377.0033031789792 392.9195526793377 377 391.62 L 377 128.43 C 377 121.24 371.91 112.42 365.68 108.82 Z" stroke-linecap="round" />
</g>
<g transform="matrix(2.16 0 0 2.16 660.97 157.91)" id="elgjng9e6f66"  >
<polygon style="stroke: none; stroke-width: 1; stroke-dasharray: none; stroke-linecap: butt; stroke-dashoffset: 0; stroke-linejoin: miter; stroke-miterlimit: 4; fill: rgb(69,90,100); fill-rule: nonzero; opacity: 1;" vector-effect="non-scaling-stroke"  points="-24.18,-15.34 -22.31,-7.53 17.32,15.33 24.18,11.68 -24.18,-15.34 " />
</g>
<g transform="matrix(2.16 0 0 2.16 629.6 138.58)"  >
<path style="stroke: none; stroke-width: 1; stroke-dasharray: none; stroke-linecap: butt; stroke-dashoffset: 0; stroke-linejoin: miter; stroke-miterlimit: 4; fill: rgb(38,50,56); fill-rule: nonzero; opacity: 1;" vector-effect="non-scaling-stroke"  transform=" translate(-291.48, -64.15)" d="M 293.48 65.32 C 293.48 66.61999999999999 292.58000000000004 67.13999999999999 291.48 66.5 C 290.28974151963416 65.71312069709516 289.54665583702894 64.40528989570993 289.48 62.98 C 289.48 61.69 290.38 61.16 291.48 61.809999999999995 C 292.66628999849604 62.59595759945192 293.40862830008285 63.898761318736746 293.48 65.32 Z" stroke-linecap="round" />
</g>
<g transform="matrix(2.16 0 0 2.16 669.78 161.8)"  >
<path style="stroke: none; stroke-width: 1; stroke-dasharray: none; stroke-linecap: butt; stroke-dashoffset: 0; stroke-linejoin: miter; stroke-miterlimit: 4; fill: rgb(38,50,56); fill-rule: nonzero; opacity: 1;" vector-effect="non-scaling-stroke"  transform=" translate(-310.08, -74.9)" d="M 320.2 81.83 C 319.98294692878386 81.83140153930707 319.7692696989117 81.77625902837232 319.58 81.67 L 299.33 70.36 C 298.7169639276878 70.01758345510491 298.4975834551049 69.24303607231218 298.84 68.63 C 299.1824165448951 68.01696392768781 299.9569639276878 67.7975834551049 300.57 68.14 L 320.82 79.46000000000001 C 321.33289276882476 79.73524360199659 321.5904902811 80.3259909807444 321.4431734802487 80.88912133238574 C 321.29585667939733 81.45225168402709 320.78197345748805 81.84117709855784 320.2 81.83000000000001 Z" stroke-linecap="round" />
</g>
<g transform="matrix(2.16 0 0 2.16 735.94 620.26)"  >
<path style="stroke: none; stroke-width: 1; stroke-dasharray: none; stroke-linecap: butt; stroke-dashoffset: 0; stroke-linejoin: miter; stroke-miterlimit: 4; fill: rgb(224,224,224); fill-rule: nonzero; opacity: 1;" vector-effect="non-scaling-stroke"  transform=" translate(-340.72, -287.16)" d="M 349 147.91 L 349 421.69 C 349 426.69 347.17 430.02 344.37 431.11 L 344.3 431.11 L 344.3 431.11 L 332.43 437.62 L 332.49 427.05 L 333.81 143.12 L 346.35 136.70000000000002 C 348.0273335461347 140.20327701691002 348.9311259632956 144.02648946837184 349 147.91 Z" stroke-linecap="round" />
</g>
<g transform="matrix(2.16 0 0 2.16 735.93 620.57)"  >
<path style="stroke: none; stroke-width: 1; stroke-dasharray: none; stroke-linecap: butt; stroke-dashoffset: 0; stroke-linejoin: miter; stroke-miterlimit: 4; fill: rgb(224,224,224); fill-rule: nonzero; opacity: 1;" vector-effect="non-scaling-stroke"  transform=" translate(-340.72, -287.3)" d="M 331.81 438.68 L 331.89 427.08 L 333.21 142.77999999999997 L 346.64 135.91999999999996 L 346.9 136.47999999999996 C 348.61325910587027 140.05177443573032 349.5407720432464 143.9493747571307 349.62 147.90999999999997 L 349.62 421.69 C 349.62 426.69 347.75 430.44 344.62 431.69 L 344.62 431.69 Z M 334.41 143.53000000000003 L 333.1 427.09 L 333.04 436.63 L 344.13 430.56 C 346.83 429.51 348.40999999999997 426.2 348.40999999999997 421.69 L 348.40999999999997 147.91 C 348.3379312591732 144.33939309091198 347.5382985618072 140.82100922250152 346.05999999999995 137.57 Z" stroke-linecap="round" />
</g>
<g transform="matrix(2.16 0 0 2.16 579.87 210.58)"  >
<path style="stroke: none; stroke-width: 1; stroke-dasharray: none; stroke-linecap: butt; stroke-dashoffset: 0; stroke-linejoin: miter; stroke-miterlimit: 4; fill: rgb(224,224,224); fill-rule: nonzero; opacity: 1;" vector-effect="non-scaling-stroke"  transform=" translate(-268.46, -97.5)" d="M 346.35 136.74 L 333.81 143.16 L 199.57 65.06 L 190.57 59.85 L 202.95999999999998 52.85 L 203.30999999999997 52.64 L 203.30999999999997 52.64 C 205.30999999999997 51.45 207.86999999999998 51.53 210.71999999999997 53.18 L 337.78 126.53999999999999 C 341.24 128.52 344.3 132.32 346.35 136.74 Z" stroke-linecap="round" />
</g>
<g transform="matrix(2.16 0 0 2.16 579.46 210.69)"  >
<path style="stroke: none; stroke-width: 1; stroke-dasharray: none; stroke-linecap: butt; stroke-dashoffset: 0; stroke-linejoin: miter; stroke-miterlimit: 4; fill: rgb(224,224,224); fill-rule: nonzero; opacity: 1;" vector-effect="non-scaling-stroke"  transform=" translate(-268.27, -97.54)" d="M 333.79 143.84 L 333.51000000000005 143.68 L 189.39 59.84 L 203 52.13 C 205.24 50.78 208.09 50.970000000000006 211 52.660000000000004 L 338.12 126 C 341.52 128 344.72 131.77 346.9 136.46 L 347.15 136.98000000000002 Z M 191.79000000000002 59.84 L 333.79 142.45 L 345.51000000000005 136.45 C 343.45000000000005 132.22 340.51000000000005 128.82 337.51000000000005 127.04999999999998 L 210.46 53.71 C 208.01000000000002 52.300000000000004 205.68 52.07 203.86 53.050000000000004 L 203.31 53.39000000000001 Z" stroke-linecap="round" />
</g>
<g transform="matrix(2.16 0 0 2.16 565.9 536.72)"  >
<path style="stroke: none; stroke-width: 1; stroke-dasharray: none; stroke-linecap: butt; stroke-dashoffset: 0; stroke-linejoin: miter; stroke-miterlimit: 4; fill: rgb(250,250,250); fill-rule: nonzero; opacity: 1;" vector-effect="non-scaling-stroke"  transform=" translate(-261.99, -248.48)" d="M 336.71 154.82 L 336.71 428.41 C 336.71 432.72 335.34 435.82000000000005 333.14 437.27000000000004 L 332.43 437.66 C 330.52 438.56 328.13 438.36 325.53000000000003 436.86 L 264.11 401.4 L 235.41000000000003 384.83 L 198.46 363.5 C 192.28 359.93 187.27 350.35 187.27 342.12 L 187.27 68.55 C 187.27 64.38 188.55 61.36 190.61 59.849999999999994 C 190.95977246411778 59.58680380539093 191.34317026665204 59.371562933792745 191.75 59.209999999999994 C 193.62 58.41 195.94 58.64999999999999 198.46 60.099999999999994 L 325.53 133.45999999999998 C 328.82 135.34999999999997 331.77 138.95999999999998 333.80999999999995 143.15999999999997 C 335.63343577047505 146.78201636479795 336.6242557970053 150.76579619560567 336.71 154.82 Z" stroke-linecap="round" />
</g>
<g transform="matrix(2.16 0 0 2.16 567.29 540.01)"  >
<path style="stroke: none; stroke-width: 1; stroke-dasharray: none; stroke-linecap: butt; stroke-dashoffset: 0; stroke-linejoin: miter; stroke-miterlimit: 4; fill: rgb(250,250,250); fill-rule: nonzero; opacity: 1;" vector-effect="non-scaling-stroke"  transform=" translate(-262.07, -249.03)" d="M 198.46 361.89 C 224.61 377.49 292.63 418.08 326.3 438.36 C 328.3417383904713 439.5797536429529 330.88135384228315 439.608593692548 332.95026533635655 438.4355208754084 C 335.01917683043 437.2624480582688 336.29837961122 435.06833807078834 336.3 432.69 L 336.3 151.37 C 336.297797812334 144.85826903284203 332.84661978596824 138.8348789383139 327.23 135.54 L 197.85 59.71 C 195.80211522723647 58.486528380044 193.253876075077 58.46141970511036 191.18228068439225 59.644300673191346 C 189.11068529370752 60.82718164127233 187.83716916262557 63.03451258293682 187.85 65.42 L 187.85 343.27 C 187.85931924504615 350.91243944623477 191.8899463940843 357.98598115359476 198.46 361.89 Z" stroke-linecap="round" />
</g>
<g transform="matrix(2.16 0 0 2.16 567.28 540.01)"  >
<path style="stroke: none; stroke-width: 1; stroke-dasharray: none; stroke-linecap: butt; stroke-dashoffset: 0; stroke-linejoin: miter; stroke-miterlimit: 4; fill: rgb(235,235,235); fill-rule: nonzero; opacity: 1;" vector-effect="non-scaling-stroke"  transform=" translate(-262.14, -249.07)" d="M 198 362.76 Q 229.48 381.53999999999996 261 400.36 Q 279.39 411.36 297.77 422.36 L 314.2 432.21000000000004 L 321.51 436.61 C 323.74 437.95 326.11 439.89 328.75 440.24 C 330.929750127772 440.50493694255744 333.11905479482436 439.82789535348024 334.76871479587277 438.3787148664481 C 336.4183747969212 436.92953437941594 337.37186605306215 434.84571704985467 337.39 432.65000000000003 C 337.39 432.16 337.39 431.65000000000003 337.39 431.18 L 337.39 172 C 337.39 165.24 337.39 158.49 337.39 151.74 C 337.43131077435874 144.62565402409422 333.6620378905363 138.03324153093106 327.51 134.46 C 324.56 132.71 321.59 130.99 318.63 129.25 L 276.25 104.42 L 225.9 75 C 216.82 69.68 207.8 64.26 198.67000000000002 59 C 196.2502923097129 57.509890142420446 193.2080933881998 57.467581672669304 190.7478830114264 58.889825532247144 C 188.287672634653 60.31206939182498 186.8061939398025 62.969508979355055 186.89000000000001 65.81 C 186.89000000000001 68.03 186.89000000000001 70.26 186.89000000000001 72.48 L 186.89000000000001 320.43 Q 186.89000000000001 331.49 186.89000000000001 342.52 C 186.75116068354296 350.7572269031336 190.97624682646432 358.45441353974286 198 362.76 C 199.1 363.43 200.1 361.7 199 361.03 C 192.21 356.85999999999996 188.92 349.82 188.92 342.03 L 188.92 87.02999999999997 C 188.92 80.02999999999997 188.92 73.02999999999997 188.92 66.02999999999997 C 188.81269273537148 64.1843009007214 189.54825459178795 62.38952997106522 190.92 61.14999999999997 C 193.16 59.24999999999997 195.85 59.63999999999997 198.17999999999998 60.99999999999997 L 208.17999999999998 66.86999999999998 L 251 92 L 300.15 120.8 C 308.92999999999995 125.95 317.72999999999996 131.05 326.47999999999996 136.23 C 332.07719145385306 139.51522521916615 335.45916314824035 145.571403038414 335.31999999999994 152.06 L 335.31999999999994 430.71 C 335.31999999999994 431.31 335.31999999999994 431.91999999999996 335.31999999999994 432.52 C 335.33214815552043 434.6233337460153 334.18496878807014 436.5624205167679 332.3356395138592 437.5644892072057 C 330.4863102396482 438.5665578976436 328.2354196837915 438.4687329970992 326.47999999999996 437.31 C 316.15 431.22 305.91999999999996 424.95 295.64 418.79 Q 260 397.42 224.23 376.11 L 199 361 C 198.5139894201489 360.7238576250846 197.8961423749154 360.8939894201489 197.62 361.38 C 197.3438576250846 361.8660105798511 197.5139894201489 362.48385762508457 198 362.76 Z" stroke-linecap="round" />
</g>
<g transform="matrix(2.16 0 0 2.16 436.14 213.15)"  >
<path style="stroke: none; stroke-width: 1; stroke-dasharray: none; stroke-linecap: butt; stroke-dashoffset: 0; stroke-linejoin: miter; stroke-miterlimit: 4; fill: rgb(64,169,255); fill-rule: nonzero; opacity: 1;" vector-effect="non-scaling-stroke"  transform=" translate(-201.92, -98.67)" d="M 205.26 100.6 C 205.26 102.72999999999999 203.76 103.6 201.92 102.53 C 199.95270712262578 101.24234776283295 198.71326884921194 99.09745158908088 198.57999999999998 96.75 C 198.57999999999998 94.62 200.07999999999998 93.75 201.92 94.82 C 203.89089541285057 96.10424104865513 205.1314855232494 98.25113052114173 205.26 100.6 Z" stroke-linecap="round" />
</g>
<g transform="matrix(2.16 0 0 2.16 436.15 232.21)"  >
<path style="stroke: none; stroke-width: 1; stroke-dasharray: none; stroke-linecap: butt; stroke-dashoffset: 0; stroke-linejoin: miter; stroke-miterlimit: 4; fill: rgb(64,169,255); fill-rule: nonzero; opacity: 1;" vector-effect="non-scaling-stroke"  transform=" translate(-201.92, -107.51)" d="M 201.92 102.53 L 201.92 102.53 C 199.2 100.95 196.98999999999998 102.62 196.98999999999998 106.26 L 196.98999999999998 107.38000000000001 L 206.84999999999997 113.08000000000001 L 206.84999999999997 112 C 206.85 108.32 204.64 104.1 201.92 102.53 Z" stroke-linecap="round" />
</g>
<g transform="matrix(2.16 0 0 2.16 566.71 237.4)"  >
<path style="stroke: none; stroke-width: 1; stroke-dasharray: none; stroke-linecap: butt; stroke-dashoffset: 0; stroke-linejoin: miter; stroke-miterlimit: 4; fill: rgb(235,235,235); fill-rule: nonzero; opacity: 1;" vector-effect="non-scaling-stroke"  transform=" translate(-262.04, -111.03)" d="M 327.25 135.54 L 197.85 59.71 C 195.80211522723647 58.486528380044 193.253876075077 58.46141970511036 191.18228068439225 59.644300673191346 C 189.11068529370752 60.82718164127233 187.83716916262557 63.03451258293682 187.85 65.42 L 187.85 77.62 L 187.85 77.62 L 336.24 163.29000000000002 L 336.24 151.37 C 336.2544934601494 144.87457885081804 332.83587542658614 138.85492106758042 327.25 135.54 Z" stroke-linecap="round" />
</g>
<g transform="matrix(1.92 -1 1 1.92 566.87 435.99)" id="elghmxb8q9z2w"  >
<ellipse style="stroke: none; stroke-width: 1; stroke-dasharray: none; stroke-linecap: butt; stroke-dashoffset: 0; stroke-linejoin: miter; stroke-miterlimit: 4; fill: rgb(69,90,100); fill-rule: nonzero; opacity: 1;" vector-effect="non-scaling-stroke"  cx="0" cy="0" rx="34.06" ry="58.99" />
</g>
<g transform="matrix(2.16 0 0 2.16 568.18 430.98)"  >
<path style="stroke: none; stroke-width: 1; stroke-dasharray: none; stroke-linecap: butt; stroke-dashoffset: 0; stroke-linejoin: miter; stroke-miterlimit: 4; fill: rgb(38,50,56); fill-rule: nonzero; opacity: 1;" vector-effect="non-scaling-stroke"  transform=" translate(-263.05, -199.53)" d="M 243.62 181.55 C 243.62 181.55 240.9 182.92000000000002 243.1 189.3 C 245.29999999999998 195.68 240.32999999999998 198.87 239.03 196.36 C 239.03 196.36 239.12 200.36 244.03 200.36 C 246.67814303597973 200.5574991669508 249.09746203091981 198.85811592829046 249.81 196.3 C 249.81 196.3 251.58 198.23000000000002 251.58 203.67000000000002 C 251.58 209.11 246.38000000000002 229.56 264.58000000000004 229.56 C 282.7800000000001 229.56 282.41 214.07 282.41 214.07 C 282.41 214.07 287.07000000000005 214.16 287.07000000000005 207.19 C 287.07000000000005 207.19 279.99000000000007 211.59 279.99000000000007 201.76 C 279.99000000000007 191.92999999999998 281.61000000000007 179.5 274.11000000000007 179.5 C 274.11000000000007 179.5 276.69000000000005 174.16 271.56000000000006 170.75 C 266.43000000000006 167.34 251 172 251 172 C 251 172 246.37 169.22 243.05 172.5 C 239 176.52 243.62 181.55 243.62 181.55 Z" stroke-linecap="round" />
</g>
<g transform="matrix(2.16 0 0 2.16 528.58 489.3)"  >
<path style="stroke: none; stroke-width: 1; stroke-dasharray: none; stroke-linecap: butt; stroke-dashoffset: 0; stroke-linejoin: miter; stroke-miterlimit: 4; fill: rgb(255,168,167); fill-rule: nonzero; opacity: 1;" vector-effect="non-scaling-stroke"  transform=" translate(-244.72, -226.53)" d="M 252.44 210.17 L 251.81 221.08999999999997 L 250.57 242.58999999999997 L 250.43 242.89999999999998 C 246.84994337561915 239.61583966846604 243.5486136670307 236.04023535389558 240.56 232.20999999999998 Q 238.72 229.83999999999997 236.99 227.35999999999999 C 237.99 223.35999999999999 238.9 219.77999999999997 239.63 217.35999999999999 C 241.49 211.26 248.10999999999999 210.29999999999998 251.04 210.17999999999998 C 251.9 210.14 252.44 210.17 252.44 210.17 Z" stroke-linecap="round" />
</g>
<g transform="matrix(2.16 0 0 2.16 561.41 504.62)"  >
<path style="stroke: none; stroke-width: 1; stroke-dasharray: none; stroke-linecap: butt; stroke-dashoffset: 0; stroke-linejoin: miter; stroke-miterlimit: 4; fill: rgb(64,169,255); fill-rule: nonzero; opacity: 1;" vector-effect="non-scaling-stroke"  transform=" translate(-259.92, -233.63)" d="M 279.39 257.21 C 278.11452347440314 257.1533620075461 276.84467049946886 257.00632639992216 275.59 256.77 C 270.83204997298066 255.81081992352347 266.2730648733247 254.0453969101552 262.10999999999996 251.54999999999998 C 257.91452031044986 249.09873573328863 253.99814953694536 246.1983412820203 250.42999999999995 242.89999999999998 C 246.8499433756191 239.61583966846604 243.54861366703065 236.04023535389558 240.55999999999995 232.20999999999998 C 240.40531776632113 231.0986900333518 240.40531776632113 229.97130996664816 240.55999999999995 228.85999999999999 C 241.35999999999996 223.04 247.91999999999996 215.14999999999998 250.91999999999996 211.79 C 251.83999999999995 210.79 252.41999999999996 210.17 252.41999999999996 210.17 L 257.41999999999996 210.04 L 268.65 210.66 L 273.81 212.07 L 273.81 212.07 C 274.4245216163487 212.25313516311903 274.8596512271353 212.80004118768565 274.9 213.44 L 275.81 226.63 L 276.19 232.06 L 275.59 234.16 L 275.59 234.16 L 273.27 242.35999999999999 C 272.7584413814896 244.21814513121254 273.12698083175235 246.20825816263152 274.27 247.76 C 274.66999999999996 248.31 275.13 248.95999999999998 275.59 249.7 C 277.1197910319445 252.06127113407362 278.39364727648757 254.5788133436837 279.39 257.2099999999999 Z" stroke-linecap="round" />
</g>
<g transform="matrix(2.16 0 0 2.16 563.69 448.43)"  >
<path style="stroke: none; stroke-width: 1; stroke-dasharray: none; stroke-linecap: butt; stroke-dashoffset: 0; stroke-linejoin: miter; stroke-miterlimit: 4; fill: rgb(255,168,167); fill-rule: nonzero; opacity: 1;" vector-effect="non-scaling-stroke"  transform=" translate(-260.97, -207.61)" d="M 268.66 210.65 L 254.35000000000002 219.92000000000002 C 254.1007402770875 220.1080536632243 253.75462474877145 220.0989976220083 253.5155401150599 219.89816652969063 C 253.2764554813484 219.6973354373729 253.20779309815237 219.35797803291877 253.35000000000002 219.08 L 257.41 210.08 L 257.41 195.16 L 268.64000000000004 195.16 Z" stroke-linecap="round" />
</g>
<g transform="matrix(2.16 0 0 2.16 567.17 436.22)"  >
<path style="stroke: none; stroke-width: 1; stroke-dasharray: none; stroke-linecap: butt; stroke-dashoffset: 0; stroke-linejoin: miter; stroke-miterlimit: 4; fill: rgb(242,143,143); fill-rule: nonzero; opacity: 1;" vector-effect="non-scaling-stroke"  transform=" translate(-262.59, -201.95)" d="M 257.43 208.74 C 262.0683242356656 207.02508303777876 265.79680915061294 203.47741698388606 267.74 198.93 L 267.74 195.16 L 257.43 195.16 Z" stroke-linecap="round" />
</g>
<g transform="matrix(2.16 0 0 2.16 558.11 414.12)"  >
<path style="stroke: none; stroke-width: 1; stroke-dasharray: none; stroke-linecap: butt; stroke-dashoffset: 0; stroke-linejoin: miter; stroke-miterlimit: 4; fill: rgb(255,168,167); fill-rule: nonzero; opacity: 1;" vector-effect="non-scaling-stroke"  transform=" translate(-258.39, -191.72)" d="M 254.82 176.75 C 254.82 176.75 244.54999999999998 177.36 245.82 194.91 C 246.4 203.03 248.31 207.23 254.56 206.91 C 261.64 206.56 271.69 201.7 271.03 187.81 C 270.36999999999995 173.92000000000002 254.82 176.75 254.82 176.75 Z" stroke-linecap="round" />
</g>
<g transform="matrix(2.16 0 0 2.16 564.76 399.71)"  >
<path style="stroke: none; stroke-width: 1; stroke-dasharray: none; stroke-linecap: butt; stroke-dashoffset: 0; stroke-linejoin: miter; stroke-miterlimit: 4; fill: rgb(38,50,56); fill-rule: nonzero; opacity: 1;" vector-effect="non-scaling-stroke"  transform=" translate(-261.47, -185.05)" d="M 268.66 195.16 C 268.66 195.16 265.84000000000003 195.9 265.84000000000003 191.87 C 265.84000000000003 191.87 253.34000000000003 191.02 250.57000000000002 178.61 C 250.57000000000002 178.61 251.81000000000003 174.89000000000001 259.62 174.89000000000001 C 267.42999999999995 174.89000000000001 274 181.8 272 191.29 Z" stroke-linecap="round" />
</g>
<g transform="matrix(2.16 0 0 2.16 543.41 419.92)" id="elxjujmdrlv1r"  >
<polygon style="stroke: none; stroke-width: 1; stroke-dasharray: none; stroke-linecap: butt; stroke-dashoffset: 0; stroke-linejoin: miter; stroke-miterlimit: 4; fill: rgb(242,143,143); fill-rule: nonzero; opacity: 1;" vector-effect="non-scaling-stroke"  points="1.76,-3.01 1.76,3.02 -1.77,1.94 1.76,-3.01 " />
</g>
<g transform="matrix(2.16 0 0 2.16 556.05 414.72)"  >
<path style="stroke: none; stroke-width: 1; stroke-dasharray: none; stroke-linecap: butt; stroke-dashoffset: 0; stroke-linejoin: miter; stroke-miterlimit: 4; fill: rgb(38,50,56); fill-rule: nonzero; opacity: 1;" vector-effect="non-scaling-stroke"  transform=" translate(-257.43, -192)" d="M 258.66 192 C 258.66 192.67931024229188 258.10931024229194 193.23 257.43000000000006 193.23000000000002 C 256.7506897577082 193.23000000000002 256.20000000000005 192.6793102422919 256.20000000000005 192.00000000000003 C 256.2 191.32068975770815 256.75068975770813 190.77 257.43 190.77 C 257.75621628250263 190.77 258.06907159536837 190.89958891364947 258.29974134085944 191.13025865914054 C 258.53041108635057 191.36092840463164 258.66 191.67378371749737 258.66 192 Z" stroke-linecap="round" />
</g>
<g transform="matrix(2.16 0 0 2.16 538.58 412.93)"  >
<path style="stroke: none; stroke-width: 1; stroke-dasharray: none; stroke-linecap: butt; stroke-dashoffset: 0; stroke-linejoin: miter; stroke-miterlimit: 4; fill: rgb(38,50,56); fill-rule: nonzero; opacity: 1;" vector-effect="non-scaling-stroke"  transform=" translate(-249.34, -191.17)" d="M 250.57 191.17 C 250.57 191.66748856111604 250.27032012108265 192.11599119485862 249.81070062180905 192.30637182498887 C 249.35108112253545 192.49675245511915 248.82203619426843 192.39151887598734 248.47025865914054 192.03974134085945 C 248.11848112401265 191.68796380573156 248.01324754488084 191.15891887746454 248.20362817501112 190.69929937819094 C 248.39400880514137 190.23967987891734 248.84251143888395 189.94 249.34 189.94 C 250.01931024229188 189.94 250.57 190.4906897577081 250.57 191.17 Z" stroke-linecap="round" />
</g>
<g transform="matrix(2.16 0 0 2.16 537.86 405.23)"  >
<path style="stroke: none; stroke-width: 1; stroke-dasharray: none; stroke-linecap: butt; stroke-dashoffset: 0; stroke-linejoin: miter; stroke-miterlimit: 4; fill: rgb(38,50,56); fill-rule: nonzero; opacity: 1;" vector-effect="non-scaling-stroke"  transform=" translate(-249.01, -187.6)" d="M 247.85 188.61 L 250.25 187.18 C 250.25 187.18 249.33 186.18 248.41 186.8 C 247.86603076631187 187.2288141211633 247.64323707597325 187.9489151560078 247.85 188.61 Z" stroke-linecap="round" />
</g>
<g transform="matrix(2.16 0 0 2.16 552.21 431.2)"  >
<path style="stroke: none; stroke-width: 1; stroke-dasharray: none; stroke-linecap: butt; stroke-dashoffset: 0; stroke-linejoin: miter; stroke-miterlimit: 4; fill: rgb(242,143,143); fill-rule: nonzero; opacity: 1;" vector-effect="non-scaling-stroke"  transform=" translate(-255.66, -199.62)" d="M 253.65 199.42 C 255.06465127349014 199.52712693188147 256.4740509108719 199.1536360279753 257.65 198.35999999999999 C 257.65 198.35999999999999 257.91999999999996 200.45 256.16999999999996 200.85 C 255.09545614966873 201.04111779220162 254.03700515712904 200.44048885595885 253.65 199.42 Z" stroke-linecap="round" />
</g>
<g transform="matrix(2.16 0 0 2.16 585.57 422.28)"  >
<path style="stroke: none; stroke-width: 1; stroke-dasharray: none; stroke-linecap: butt; stroke-dashoffset: 0; stroke-linejoin: miter; stroke-miterlimit: 4; fill: rgb(255,168,167); fill-rule: nonzero; opacity: 1;" vector-effect="non-scaling-stroke"  transform=" translate(-271.09, -195.5)" d="M 267.66 195.61 C 267.61412156424865 194.58028630531024 267.8057287774364 193.55381909180431 268.22 192.61 C 268.6321662820158 191.4073594605506 269.7308174424389 190.57349113375466 271 190.5 C 274.15 190.41 274.58 193.45 274.53 194.5 C 274.41999999999996 197.34 272.11999999999995 200.4 267.84999999999997 200.5 Z" stroke-linecap="round" />
</g>
<g transform="matrix(2.16 0 0 2.16 605.83 507.06)"  >
<path style="stroke: none; stroke-width: 1; stroke-dasharray: none; stroke-linecap: butt; stroke-dashoffset: 0; stroke-linejoin: miter; stroke-miterlimit: 4; fill: rgb(255,168,167); fill-rule: nonzero; opacity: 1;" vector-effect="non-scaling-stroke"  transform=" translate(-280.48, -234.74)" d="M 288.92 255.78 C 285.8829243091092 256.9356584485118 282.6325050672634 257.4233918709503 279.39000000000004 257.21 C 278.1145234744032 257.1533620075461 276.8446704994689 257.00632639992216 275.59000000000003 256.77 L 275.59000000000003 249.76999999999998 L 275.59000000000003 234.23 L 275.59000000000003 234.23 C 274.5303514048518 232.31795688099365 273.6563572274416 230.30877486395872 272.98 228.23 C 269.71000000000004 218.04 273.81 212.23 273.81 212.23 C 276.8020283960894 212.96429012556888 279.6486718120063 214.19828638068722 282.23 215.88 C 284.10705376620325 217.1229932187787 285.59155311963957 218.87456371757628 286.51 220.93 C 289.41 227.46 289.59 237 288.92 255.78 Z" stroke-linecap="round" />
</g>
<g transform="matrix(2.16 0 0 2.16 565.42 515.97)"  >
<path style="stroke: none; stroke-width: 1; stroke-dasharray: none; stroke-linecap: butt; stroke-dashoffset: 0; stroke-linejoin: miter; stroke-miterlimit: 4; fill: rgb(0,0,0); fill-rule: nonzero; opacity: 0.2;" vector-effect="non-scaling-stroke"  transform=" translate(-261.76, -238.88)" d="M 268 236.29 C 264.9883905930312 239.95759635082592 259.9936637344537 241.33144664151726 255.53 239.72 C 255.53 239.72 263.31 245.39 268 236.29 Z" stroke-linecap="round" />
</g>
<g transform="matrix(2.16 0 0 2.16 692.73 359.2)"  >
<path style="stroke: none; stroke-width: 1; stroke-dasharray: none; stroke-linecap: butt; stroke-dashoffset: 0; stroke-linejoin: miter; stroke-miterlimit: 4; fill: rgb(64,169,255); fill-rule: nonzero; opacity: 1;" vector-effect="non-scaling-stroke"  transform=" translate(-320.71, -166.29)" d="M 322.09 167.09 C 322.09 167.97 321.47999999999996 168.33 320.71 167.89000000000001 C 319.89371854478696 167.35572508343074 319.3811171479353 166.46424439325392 319.33 165.49 C 319.33 164.61 319.95 164.26000000000002 320.71 164.70000000000002 C 321.5308866957186 165.2252342838495 322.0454959418766 166.11647783335496 322.09 167.09 Z" stroke-linecap="round" />
</g>
<g transform="matrix(2.16 0 0 2.16 692.73 372.69)"  >
<path style="stroke: none; stroke-width: 1; stroke-dasharray: none; stroke-linecap: butt; stroke-dashoffset: 0; stroke-linejoin: miter; stroke-miterlimit: 4; fill: rgb(64,169,255); fill-rule: nonzero; opacity: 1;" vector-effect="non-scaling-stroke"  transform=" translate(-320.71, -172.54)" d="M 322.09 173.34 C 322.09 174.22 321.47999999999996 174.58 320.71 174.14000000000001 C 319.89492337382876 173.60458879792336 319.3827052819125 172.71377472502542 319.33 171.74 C 319.33 170.86 319.95 170.5 320.71 170.95000000000002 C 321.5308866957186 171.4752342838495 322.0454959418766 172.36647783335496 322.09 173.34 Z" stroke-linecap="round" />
</g>
<g transform="matrix(2.16 0 0 2.16 692.73 386.19)"  >
<path style="stroke: none; stroke-width: 1; stroke-dasharray: none; stroke-linecap: butt; stroke-dashoffset: 0; stroke-linejoin: miter; stroke-miterlimit: 4; fill: rgb(64,169,255); fill-rule: nonzero; opacity: 1;" vector-effect="non-scaling-stroke"  transform=" translate(-320.71, -178.79)" d="M 322.09 179.59 C 322.09 180.47 321.47999999999996 180.83 320.71 180.39000000000001 C 319.89492337382876 179.85458879792336 319.3827052819125 178.96377472502542 319.33 177.99 C 319.33 177.11 319.95 176.75 320.71 177.20000000000002 C 321.5308866957186 177.7252342838495 322.0454959418766 178.61647783335496 322.09 179.59 Z" stroke-linecap="round" />
</g>
<g transform="matrix(2.16 0 0 2.16 561.36 758.33)"  >
<path style="stroke: none; stroke-width: 1; stroke-dasharray: none; stroke-linecap: butt; stroke-dashoffset: 0; stroke-linejoin: miter; stroke-miterlimit: 4; fill: rgb(64,169,255); fill-rule: nonzero; opacity: 1;" vector-effect="non-scaling-stroke"  transform=" translate(-262.11, -349.42)" d="M 325.9 386.77 C 325.81318475086266 386.7693000401486 325.727676504837 386.7487780611025 325.65 386.71 L 198.06 313 C 197.94441890744838 312.9351326149074 197.86004547311475 312.8262101539638 197.8261295552205 312.69808335302986 C 197.7922136373262 312.5699565520959 197.81164847630046 312.43355543057083 197.88 312.32 C 198.01910277320235 312.0846438009719 198.31904602999995 312.00083612627844 198.56 312.13 L 326.15 385.8 C 326.3853561990281 385.93910277320236 326.4691638737215 386.23904602999994 326.34 386.48 C 326.256801451725 386.6493283978439 326.08841500959977 386.7603103710627 325.9 386.77 Z" stroke-linecap="round" />
</g>
<g transform="matrix(2.16 0 0 2.16 563.77 689.82)"  >
<path style="stroke: none; stroke-width: 1; stroke-dasharray: none; stroke-linecap: butt; stroke-dashoffset: 0; stroke-linejoin: miter; stroke-miterlimit: 4; fill: rgb(64,169,255); fill-rule: nonzero; opacity: 1;" vector-effect="non-scaling-stroke"  transform=" translate(-262.11, -336.5)" d="M 325.9 373.84 C 325.8117473103086 373.84060145718865 325.72510836683415 373.81634255301583 325.65 373.77 L 198.06 300.11 C 197.82245554111367 299.9671361952593 197.74251502987167 299.66069756883155 197.88 299.42 C 197.94486738509258 299.3044189074484 198.05378984603618 299.2200454731148 198.18191664697014 299.1861295552205 C 198.31004344790406 299.1522136373262 198.44644456942916 299.17164847630045 198.56 299.24 L 326.15 372.91 C 326.389891693058 373.04558579856143 326.47486551334475 373.3497026290613 326.34 373.59000000000003 C 326.24651090037514 373.74389416519153 326.0800591070009 373.8384690477905 325.9 373.84 Z" stroke-linecap="round" />
</g>
<g transform="matrix(2.16 0 0 2.16 561.4 722.47)"  >
<path style="stroke: none; stroke-width: 1; stroke-dasharray: none; stroke-linecap: butt; stroke-dashoffset: 0; stroke-linejoin: miter; stroke-miterlimit: 4; fill: rgb(64,169,255); fill-rule: nonzero; opacity: 1;" vector-effect="non-scaling-stroke"  transform=" translate(-262.13, -323.59)" d="M 325.9 360.91 C 325.81250298226473 360.9055178907676 325.7271024042238 360.88160572891616 325.65 360.84000000000003 L 198.06 287.17 C 197.85263892947597 287.019195444449 197.79295623738952 286.73597756870527 197.92182779680329 286.51431848651356 C 198.05069935621708 286.29265940432185 198.32635418562808 286.20440520386734 198.56 286.31 L 326.15 360 C 326.3867088468249 360.14290569760317 326.47018746327876 360.4460648836726 326.34 360.69 C 326.239488690605 360.8324585052133 326.0742735898076 360.91506605561204 325.9 360.91 Z" stroke-linecap="round" />
</g>
<g transform="matrix(1.88 1.08 0 2.16 578.49 314.13)" style="" id="freepik--Screen--inject-6"  >
		<text xml:space="preserve" font-family="Montserrat-Bold, Montserrat" font-size="10.8023" font-style="normal" font-weight="700" style="stroke: none; stroke-width: 1; stroke-dasharray: none; stroke-linecap: butt; stroke-dashoffset: 0; stroke-linejoin: miter; stroke-miterlimit: 4; fill: rgb(69,90,100); fill-rule: nonzero; opacity: 1; white-space: pre;" ><tspan x="-20.48" y="3.39" >Pr ofile</tspan></text>
</g>
<g transform="matrix(1.88 1.08 0 2.16 560.7 570.82)" style="" id="freepik--Screen--inject-6"  >
		<text xml:space="preserve" font-family="Montserrat-Bold, Montserrat" font-size="10.7315" font-style="normal" font-weight="700" style="stroke: none; stroke-width: 1; stroke-dasharray: none; stroke-linecap: butt; stroke-dashoffset: 0; stroke-linejoin: miter; stroke-miterlimit: 4; fill: rgb(69,90,100); fill-rule: nonzero; opacity: 1; white-space: pre;" ><tspan x="-28.86" y="3.37" >Yourname</tspan></text>
</g>
<g transform="matrix(1.88 1.08 0 2.16 647.47 866.51)" style="" id="freepik--Screen--inject-6"  >
		<text xml:space="preserve" font-family="Montserrat-Bold, Montserrat" font-size="9.37487" font-style="normal" font-weight="700" style="stroke: none; stroke-width: 1; stroke-dasharray: none; stroke-linecap: butt; stroke-dashoffset: 0; stroke-linejoin: miter; stroke-miterlimit: 4; fill: rgb(186,104,200); fill-rule: nonzero; opacity: 1; white-space: pre;" ><tspan x="-34.28" y="2.95" >600 Followers</tspan></text>
</g>
<g transform="matrix(1.88 1.08 0 2.16 489.6 777.24)" style="" id="freepik--Screen--inject-6"  >
		<text xml:space="preserve" font-family="Montserrat-Bold, Montserrat" font-size="9.37487" font-style="normal" font-weight="700" style="stroke: none; stroke-width: 1; stroke-dasharray: none; stroke-linecap: butt; stroke-dashoffset: 0; stroke-linejoin: miter; stroke-miterlimit: 4; fill: rgb(186,104,200); fill-rule: nonzero; opacity: 1; white-space: pre;" ><tspan x="-34.65" y="2.95" >500 Following</tspan></text>
</g>
<g transform="matrix(1.88 1.08 0 2.16 559.04 602.17)" style="" id="freepik--Screen--inject-6"  >
		<text xml:space="preserve" font-family="Montserrat-Medium, Montserrat" font-size="10.7315" font-style="normal" font-weight="500" style="stroke: none; stroke-width: 1; stroke-dasharray: none; stroke-linecap: butt; stroke-dashoffset: 0; stroke-linejoin: miter; stroke-miterlimit: 4; fill: rgb(186,104,200); fill-rule: nonzero; opacity: 1; white-space: pre;" ><tspan x="-33.15" y="3.37" >@username</tspan></text>
</g>
<g transform="matrix(1.88 1.08 0 2.16 558.8 645.04)" style="" id="freepik--Screen--inject-6"  >
		<text xml:space="preserve" font-family="Montserrat-Medium, Montserrat" font-size="10.7315" font-style="normal" font-weight="500" style="stroke: none; stroke-width: 1; stroke-dasharray: none; stroke-linecap: butt; stroke-dashoffset: 0; stroke-linejoin: miter; stroke-miterlimit: 4; fill: rgb(69,90,100); fill-rule: nonzero; opacity: 1; white-space: pre;" ><tspan x="-41.2" y="3.37" >Bio description</tspan></text>
</g>
<g transform="matrix(2.16 0 0 2.16 273.89 806.27)"  >
<path style="stroke: none; stroke-width: 1; stroke-dasharray: none; stroke-linecap: butt; stroke-dashoffset: 0; stroke-linejoin: miter; stroke-miterlimit: 4; fill: rgb(38,50,56); fill-rule: nonzero; opacity: 1;" vector-effect="non-scaling-stroke"  transform=" translate(-126.79, -373.28)" d="M 140.4 361.82 C 140.4 361.82 143.64000000000001 361.11 143.49 364.90999999999997 C 143.33 368.90999999999997 146.28 374.29999999999995 139.03 376.23999999999995 C 135.100447927242 377.3407617279821 131.46791359054856 379.30909642030144 128.4 382 C 125.76 384.07 118.63000000000001 386.1 113.26 383.7 C 103.39 379.28 116.82000000000001 373.94 116.82000000000001 373.94 Z" stroke-linecap="round" />
</g>
<g transform="matrix(2.16 0 0 2.16 383.7 819.74)"  >
<path style="stroke: none; stroke-width: 1; stroke-dasharray: none; stroke-linecap: butt; stroke-dashoffset: 0; stroke-linejoin: miter; stroke-miterlimit: 4; fill: rgb(38,50,56); fill-rule: nonzero; opacity: 1;" vector-effect="non-scaling-stroke"  transform=" translate(-177.64, -379.52)" d="M 178.62 361.87 C 178.62 361.87 180.62 360.29 181.70000000000002 368.48 C 182.78000000000003 376.67 191.60000000000002 397.36 177.63000000000002 397.36 C 170.46000000000004 397.36 169.83 386.2 169.86 378.59000000000003 C 169.89000000000001 370.9800000000001 169.59 363.70000000000005 170.58 362.43 C 171.57000000000002 361.15999999999997 178.62 361.87 178.62 361.87 Z" stroke-linecap="round" />
</g>
<g transform="matrix(2.16 0 0 2.16 285.74 714.88)"  >
<path style="stroke: none; stroke-width: 1; stroke-dasharray: none; stroke-linecap: butt; stroke-dashoffset: 0; stroke-linejoin: miter; stroke-miterlimit: 4; fill: rgb(255,168,167); fill-rule: nonzero; opacity: 1;" vector-effect="non-scaling-stroke"  transform=" translate(-132.29, -330.96)" d="M 147.75 293.64 C 147.15883975034188 296.6461712336653 146.82430197877915 299.6971557103173 146.75 302.76000000000005 C 146.75 306.62 147.42 317.06 146.75 323.83 C 146.08 330.59999999999997 142.25 356.59 141.98 358.34 C 141.8770977854493 359.7063559480407 141.9442785540617 361.08020266616404 142.17999999999998 362.42999999999995 C 142.2833445741014 363.0909636892018 142.00948774085884 363.75439151057816 141.46999999999997 364.15 C 139.33999999999997 365.73999999999995 133.96999999999997 369.77 132.17999999999998 371.22999999999996 C 129.92 373.08 123.31999999999998 381.68999999999994 116.82999999999998 373.96 C 116.82999999999998 373.96 131.13 364.29999999999995 131.82999999999998 360.09 C 132.52999999999997 355.88 129.66 319.4 128.82999999999998 315.09 C 127.99999999999997 310.78 127.82999999999998 284.78999999999996 127.82999999999998 284.78999999999996 Z" stroke-linecap="round" />
</g>
<g transform="matrix(2.16 0 0 2.16 364.81 729.51)"  >
<path style="stroke: none; stroke-width: 1; stroke-dasharray: none; stroke-linecap: butt; stroke-dashoffset: 0; stroke-linejoin: miter; stroke-miterlimit: 4; fill: rgb(255,168,167); fill-rule: nonzero; opacity: 1;" vector-effect="non-scaling-stroke"  transform=" translate(-168.89, -337.36)" d="M 176.75 290 L 176.75 298 C 176.74993060685992 298.84437283443384 176.82017330175555 299.6872851731815 176.96 300.52 C 177.67000000000002 304.78 179.96 319.39 180.21 331.07 C 180.49 344.90999999999997 180.3 357.23 179.71 362.4 C 179.12 367.56999999999994 182.20000000000002 377.53 182.47 379.04999999999995 C 183.08 382.47999999999996 182.56 384.66999999999996 177.47 384.71999999999997 C 174.27 384.71999999999997 172.13 384.11999999999995 171.85999999999999 379.16999999999996 C 171.58999999999997 374.21999999999997 171.02999999999997 364.71 171.02999999999997 364.71 C 171.02999999999997 364.71 164.11999999999998 332.21999999999997 162.90999999999997 326.81 C 161.69999999999996 321.40000000000003 155.50999999999996 295.43 155.10999999999996 292.81 Z" stroke-linecap="round" />
</g>
<g transform="matrix(2.16 0 0 2.16 332.21 366.98)"  >
<path style="stroke: none; stroke-width: 1; stroke-dasharray: none; stroke-linecap: butt; stroke-dashoffset: 0; stroke-linejoin: miter; stroke-miterlimit: 4; fill: rgb(38,50,56); fill-rule: nonzero; opacity: 1;" vector-effect="non-scaling-stroke"  transform=" translate(-153.8, -169.89)" d="M 132 149.74 C 132 149.74 129 151.28 131.43 158.43 C 133.86 165.58 128.31 169.15 126.86000000000001 166.34 C 126.86000000000001 166.34 126.96000000000001 170.88 132.46 170.88 C 137.96 170.88 138.95000000000002 166.32 138.95000000000002 166.32 C 138.95000000000002 166.32 140.95000000000002 168.48999999999998 140.95000000000002 174.59 C 140.95000000000002 180.69000000000003 135.13000000000002 203.59 155.51000000000002 203.59 C 175.89000000000001 203.59 175.51000000000002 186.23000000000002 175.51000000000002 186.23000000000002 C 175.51000000000002 186.23000000000002 180.74 186.32000000000002 180.74 178.51000000000002 C 180.74 178.51000000000002 172.8 183.44000000000003 172.8 172.42000000000002 C 172.8 161.4 174.61 147.42000000000002 166.20000000000002 147.42000000000002 C 166.20000000000002 147.42000000000002 169.09 141.42000000000002 163.34 137.60000000000002 C 157.59 133.78000000000003 140.34 138.98000000000002 140.34 138.98000000000002 C 140.34 138.98000000000002 135.15 135.87 131.43 139.55 C 126.9 144.09 132 149.74 132 149.74 Z" stroke-linecap="round" />
</g>
<g transform="matrix(2.16 0 0 2.16 252.46 422.82)"  >
<path style="stroke: none; stroke-width: 1; stroke-dasharray: none; stroke-linecap: butt; stroke-dashoffset: 0; stroke-linejoin: miter; stroke-miterlimit: 4; fill: rgb(255,168,167); fill-rule: nonzero; opacity: 1;" vector-effect="non-scaling-stroke"  transform=" translate(-116.89, -195.75)" d="M 141.94 181.83 C 137.57600446756578 181.93776956618905 133.3524995780739 183.39451194742816 129.85 186 C 123.91 190.4 113.47999999999999 198 113.47999999999999 198 C 113.47999999999999 198 101.75 182.77 99.4 178 L 91.83000000000001 183.56 C 91.83000000000001 183.56 103.24000000000001 213.5 111.55000000000001 213.5 C 117.74000000000001 213.5 135.86 199.83 135.86 199.83 Z" stroke-linecap="round" />
</g>
<g transform="matrix(2.16 0 0 2.16 201.61 373.22)"  >
<path style="stroke: none; stroke-width: 1; stroke-dasharray: none; stroke-linecap: butt; stroke-dashoffset: 0; stroke-linejoin: miter; stroke-miterlimit: 4; fill: rgb(255,168,167); fill-rule: nonzero; opacity: 1;" vector-effect="non-scaling-stroke"  transform=" translate(-93.33, -172.79)" d="M 100.66 180.18 C 101.47693522986626 178.04034371421355 101.5299215589145 175.68421828253568 100.81 173.51000000000002 C 100.47 172.4 101.41 169.20000000000002 100.81 168.73000000000002 C 100.21000000000001 168.26000000000002 97.97 168.3 97.36 172.66000000000003 C 96.22994535173925 171.06347058185023 95.42779964917355 169.25864275107742 95 167.35 C 94.39 164.35 93.87 160.42 90.62 162.73999999999998 C 87.37 165.05999999999997 83.38000000000001 170.10999999999999 86.46000000000001 175.08999999999997 C 89.46000000000001 179.89999999999998 91.79 183.53999999999996 91.79 183.53999999999996 Z" stroke-linecap="round" />
</g>
<g transform="matrix(2.16 0 0 2.16 328.17 572.66)"  >
<path style="stroke: none; stroke-width: 1; stroke-dasharray: none; stroke-linecap: butt; stroke-dashoffset: 0; stroke-linejoin: miter; stroke-miterlimit: 4; fill: rgb(38,50,56); fill-rule: nonzero; opacity: 1;" vector-effect="non-scaling-stroke"  transform=" translate(-151.92, -265.12)" d="M 172.26 234.81 C 172.26 234.81 174.64999999999998 240.07 176.04999999999998 251.21 C 177.45 262.35 176.74999999999997 290.03000000000003 176.74999999999997 290.03000000000003 C 168.53501274821846 293.5612605279414 159.69174415762132 295.39793938906536 150.74999999999997 295.43 C 142.12362034939983 295.49576066027015 133.7274033241994 292.64886877761717 126.91999999999997 287.35 C 126.91999999999997 287.35 127.17999999999998 288.52000000000004 127.17999999999998 268.44 C 127.17999999999998 248.35999999999996 131.48999999999998 236.44 131.48999999999998 236.44 Z" stroke-linecap="round" />
</g>
<g transform="matrix(2.16 0 0 2.16 324.81 459.09)"  >
<path style="stroke: none; stroke-width: 1; stroke-dasharray: none; stroke-linecap: butt; stroke-dashoffset: 0; stroke-linejoin: miter; stroke-miterlimit: 4; fill: rgb(64,169,255); fill-rule: nonzero; opacity: 1;" vector-effect="non-scaling-stroke"  transform=" translate(-150.38, -212.55)" d="M 160.13 182.37 L 165.91 183.96 C 166.62541806635258 184.15423865396093 167.13921143367025 184.78042432037932 167.19 185.52 L 168.63 206.39000000000001 L 165.36 218 C 164.77581333755666 220.0757091073691 165.17370250115553 222.3046252553071 166.44000000000003 224.05 C 168.8470032100589 227.3744839842073 170.80395575551603 231.0025798545651 172.26000000000002 234.84 C 172.26000000000002 234.84 165.52 243.37 149.99 243.37 C 139.23000000000002 243.37 131.51000000000002 236.46 131.51000000000002 236.46 C 133.04711591868562 231.88651145807634 134.13557758663015 227.1743097140826 134.76000000000002 222.39 C 134.90516486781382 219.6899126472894 134.59069335271073 216.98478133457465 133.83 214.39000000000001 C 133.83 214.39000000000001 127.47000000000001 211.39000000000001 128.64000000000001 202.87 C 129.81 194.35 141.94000000000003 181.87 141.94000000000003 181.87 L 147.54000000000002 181.72 Z" stroke-linecap="round" />
</g>
<g transform="matrix(2.16 0 0 2.16 327.4 386.51)"  >
<path style="stroke: none; stroke-width: 1; stroke-dasharray: none; stroke-linecap: butt; stroke-dashoffset: 0; stroke-linejoin: miter; stroke-miterlimit: 4; fill: rgb(255,168,167); fill-rule: nonzero; opacity: 1;" vector-effect="non-scaling-stroke"  transform=" translate(-151.58, -178.94)" d="M 160.13 182.37 L 144.13 192.77 C 143.8490334213417 192.94316665701143 143.48841877237473 192.9152009490197 143.2375090972411 192.70078722663277 C 142.98659942210747 192.48637350424585 142.90275451116472 192.1345283155875 143.03 191.83 L 147.59 181.68 L 147.59 165 L 160.18 165 Z" stroke-linecap="round" />
</g>
<g transform="matrix(2.16 0 0 2.16 331.17 372.84)"  >
<path style="stroke: none; stroke-width: 1; stroke-dasharray: none; stroke-linecap: butt; stroke-dashoffset: 0; stroke-linejoin: miter; stroke-miterlimit: 4; fill: rgb(242,143,143); fill-rule: nonzero; opacity: 1;" vector-effect="non-scaling-stroke"  transform=" translate(-153.32, -172.62)" d="M 147.54 180.23 C 152.73840142214493 178.30317225780283 156.91762754168187 174.32639999872788 159.1 169.23 L 159.1 165 L 147.54 165 Z" stroke-linecap="round" />
</g>
<g transform="matrix(2.16 0 0 2.16 320.98 348.1)"  >
<path style="stroke: none; stroke-width: 1; stroke-dasharray: none; stroke-linecap: butt; stroke-dashoffset: 0; stroke-linejoin: miter; stroke-miterlimit: 4; fill: rgb(255,168,167); fill-rule: nonzero; opacity: 1;" vector-effect="non-scaling-stroke"  transform=" translate(-148.61, -161.15)" d="M 144.6 144.36 C 144.6 144.36 133.09 145.03 134.51 164.72000000000003 C 135.17 173.82000000000002 137.29999999999998 178.54000000000002 144.31 178.19000000000003 C 152.25 177.80000000000004 163.53 172.34000000000003 162.79 156.77000000000004 C 162.04999999999998 141.20000000000005 144.6 144.36 144.6 144.36 Z" stroke-linecap="round" />
</g>
<g transform="matrix(2.16 0 0 2.16 328.41 331.92)"  >
<path style="stroke: none; stroke-width: 1; stroke-dasharray: none; stroke-linecap: butt; stroke-dashoffset: 0; stroke-linejoin: miter; stroke-miterlimit: 4; fill: rgb(38,50,56); fill-rule: nonzero; opacity: 1;" vector-effect="non-scaling-stroke"  transform=" translate(-152.05, -153.66)" d="M 160.13 165 C 160.13 165 156.97 165.83 156.97 161.31 C 156.97 161.31 142.97 160.36 139.85 146.44 C 139.85 146.44 141.23 142.27 149.99 142.27 C 158.75000000000003 142.27 166.11 150.01000000000002 163.82000000000002 160.66000000000003 Z" stroke-linecap="round" />
</g>
<g transform="matrix(2.16 0 0 2.16 304.5 354.57)" id="elywr6kegzqe"  >
<polygon style="stroke: none; stroke-width: 1; stroke-dasharray: none; stroke-linecap: butt; stroke-dashoffset: 0; stroke-linejoin: miter; stroke-miterlimit: 4; fill: rgb(242,143,143); fill-rule: nonzero; opacity: 1;" vector-effect="non-scaling-stroke"  points="1.98,-3.38 1.98,3.38 -1.98,2.16 1.98,-3.38 " />
</g>
<g transform="matrix(2.16 0 0 2.16 318.69 348.82)" id="eladd2m7pziij"  >
<circle style="stroke: none; stroke-width: 1; stroke-dasharray: none; stroke-linecap: butt; stroke-dashoffset: 0; stroke-linejoin: miter; stroke-miterlimit: 4; fill: rgb(38,50,56); fill-rule: nonzero; opacity: 1;" vector-effect="non-scaling-stroke"  cx="0" cy="0" r="1.38" />
</g>
<g transform="matrix(2.16 0 0 2.16 299.09 346.74)"  >
<path style="stroke: none; stroke-width: 1; stroke-dasharray: none; stroke-linecap: butt; stroke-dashoffset: 0; stroke-linejoin: miter; stroke-miterlimit: 4; fill: rgb(38,50,56); fill-rule: nonzero; opacity: 1;" vector-effect="non-scaling-stroke"  transform=" translate(-138.47, -160.53)" d="M 139.85 160.53 C 139.85 161.0881578978375 139.51377379438543 161.59135597471945 138.99810313666381 161.80495375486558 C 138.48243247894223 162.0185515350117 137.8888698764963 161.90048459257116 137.49419264196257 161.50580735803743 C 137.09951540742884 161.1111301235037 136.9814484649883 160.51756752105777 137.19504624513442 160.00189686333619 C 137.40864402528055 159.48622620561457 137.9118421021625 159.15 138.47 159.15 C 139.2321529547665 159.15 139.85 159.7678470452335 139.85 160.53 Z" stroke-linecap="round" />
</g>
<g transform="matrix(2.16 0 0 2.16 298.3 338.12)"  >
<path style="stroke: none; stroke-width: 1; stroke-dasharray: none; stroke-linecap: butt; stroke-dashoffset: 0; stroke-linejoin: miter; stroke-miterlimit: 4; fill: rgb(38,50,56); fill-rule: nonzero; opacity: 1;" vector-effect="non-scaling-stroke"  transform=" translate(-138.09, -156.54)" d="M 136.79 157.66 L 139.48 156.04999999999998 C 139.48 156.04999999999998 138.48 154.98 137.42 155.61999999999998 C 136.81166697631693 156.10655867143012 136.56195548421286 156.91514826490993 136.79 157.66 Z" stroke-linecap="round" />
</g>
<g transform="matrix(2.16 0 0 2.16 314.32 367.2)"  >
<path style="stroke: none; stroke-width: 1; stroke-dasharray: none; stroke-linecap: butt; stroke-dashoffset: 0; stroke-linejoin: miter; stroke-miterlimit: 4; fill: rgb(242,143,143); fill-rule: nonzero; opacity: 1;" vector-effect="non-scaling-stroke"  transform=" translate(-145.52, -170)" d="M 143.29 169.78 C 144.86175859979872 169.8944336191409 146.4261476007879 169.4751491796866 147.73 168.59 C 147.73 168.59 148.04 170.93 146.07999999999998 171.38 C 144.8885083963154 171.57433530900002 143.72401027136786 170.90652276422725 143.29 169.78 Z" stroke-linecap="round" />
</g>
<g transform="matrix(2.16 0 0 2.16 351.74 357.28)"  >
<path style="stroke: none; stroke-width: 1; stroke-dasharray: none; stroke-linecap: butt; stroke-dashoffset: 0; stroke-linejoin: miter; stroke-miterlimit: 4; fill: rgb(255,168,167); fill-rule: nonzero; opacity: 1;" vector-effect="non-scaling-stroke"  transform=" translate(-162.84, -165.4)" d="M 159 165.51 C 158.952359658202 164.3641722593691 159.1643064280614 163.2223944991588 159.62 162.17 C 160.07132865743156 160.82806745589104 161.27880912178478 159.88410878668984 162.69 159.76999999999998 C 166.22 159.67 166.69 163.07999999999998 166.69 164.29 C 166.57 167.47 163.99 170.91 159.19 171.04 Z" stroke-linecap="round" />
</g>
<g transform="matrix(2.16 0 0 2.16 382.83 472.59)"  >
<path style="stroke: none; stroke-width: 1; stroke-dasharray: none; stroke-linecap: butt; stroke-dashoffset: 0; stroke-linejoin: miter; stroke-miterlimit: 4; fill: rgb(255,168,167); fill-rule: nonzero; opacity: 1;" vector-effect="non-scaling-stroke"  transform=" translate(-177.73, -218.79)" d="M 166 184 C 166 184 160.22 190.82 168.66 206.41 C 177.1 222 177.79 223.3 177.79 223.3 C 177.79 223.3 172.01999999999998 240.18 169.79 248.87 L 178.42 253.58 C 178.42 253.58 187.56 234.46 189.73 230.29000000000002 C 191.89999999999998 226.12000000000003 191.97 222.90000000000003 189.73 217.20000000000002 C 187.48999999999998 211.5 180.83999999999997 197.31 179.1 193.20000000000002 C 177.36 189.09000000000003 171.81 185.58 166 184 Z" stroke-linecap="round" />
</g>
<g transform="matrix(2.16 0 0 2.16 365.66 557.46)"  >
<path style="stroke: none; stroke-width: 1; stroke-dasharray: none; stroke-linecap: butt; stroke-dashoffset: 0; stroke-linejoin: miter; stroke-miterlimit: 4; fill: rgb(255,168,167); fill-rule: nonzero; opacity: 1;" vector-effect="non-scaling-stroke"  transform=" translate(-169.28, -258.08)" d="M 169.79 248.85 C 169.79 248.85 167.54999999999998 248.79 165.04999999999998 251.98 C 164.33999999999997 252.89 161.17999999999998 253.98 161.04999999999998 254.67999999999998 C 160.92 255.37999999999997 162.33999999999997 257.25 166.26 255.23999999999998 C 165.60267731048643 257.08969048153904 164.58275151217515 258.7895668120579 163.26 260.24 C 161.17 262.45 158.26 265.14 162.01 266.47 C 165.76 267.80000000000007 172.2 268.17 174.51 262.79 C 176.75 257.6 178.37 253.57000000000002 178.37 253.57000000000002 Z" stroke-linecap="round" />
</g>
<g transform="matrix(2.16 0 0 2.16 329.03 462.31)"  >
<path style="stroke: none; stroke-width: 1; stroke-dasharray: none; stroke-linecap: butt; stroke-dashoffset: 0; stroke-linejoin: miter; stroke-miterlimit: 4; fill: rgb(0,0,0); fill-rule: nonzero; opacity: 0.2;" vector-effect="non-scaling-stroke"  transform=" translate(-152.33, -214.04)" d="M 159.33 211.13 C 159.33 211.13 153.99 218.13 145.33 214.98 C 145.34 215 154.13 221.34 159.33 211.13 Z" stroke-linecap="round" />
</g>
</svg>